<svg width="28" height="22" viewBox="0 0 28 22" fill="none" xmlns="http://www.w3.org/2000/svg">
<path d="M23.5752 2.27213C26.7156 6.84479 28.2665 12.0026 27.6867 17.9405C27.6843 17.9656 27.6711 17.9887 27.6503 18.0038C25.2721 19.7332 22.968 20.7827 20.6962 21.4788C20.6785 21.4841 20.6596 21.4838 20.6421 21.4779C20.6246 21.472 20.6093 21.4609 20.5985 21.446C20.0737 20.7228 19.5968 19.9604 19.179 19.1597C19.155 19.1126 19.1769 19.0558 19.2263 19.0372C19.9837 18.7546 20.7039 18.4158 21.3966 18.0148C21.4512 17.9832 21.4546 17.9057 21.4042 17.8685C21.2572 17.7605 21.1116 17.6469 20.9722 17.5333C20.9461 17.5123 20.911 17.5081 20.8815 17.5222C16.3841 19.579 11.4575 19.579 6.90701 17.5222C6.87747 17.5092 6.84236 17.5136 6.81699 17.5343C6.67796 17.6479 6.53197 17.7605 6.38634 17.8685C6.33594 17.9057 6.34011 17.9832 6.39503 18.0148C7.08775 18.4083 7.80794 18.7546 8.56427 19.0386C8.61328 19.0571 8.63657 19.1126 8.61224 19.1597C8.20349 19.9614 7.72661 20.7239 7.19203 21.4471C7.16874 21.4763 7.13051 21.4898 7.09436 21.4788C4.83335 20.7827 2.52924 19.7332 0.151094 18.0038C0.131282 17.9887 0.117031 17.9646 0.114946 17.9394C-0.369581 12.8033 0.617894 7.60277 4.22265 2.2711C4.23134 2.25699 4.24455 2.24597 4.25984 2.23943C6.03354 1.43326 7.93376 0.840167 9.91984 0.501451C9.95599 0.495944 9.99213 0.512466 10.0109 0.544135C10.2563 0.974414 10.5368 1.5262 10.7266 1.97714C12.82 1.66045 14.9462 1.66045 17.0835 1.97714C17.2732 1.53584 17.544 0.974414 17.7884 0.544135C17.7971 0.528424 17.8105 0.515838 17.8269 0.508173C17.8433 0.500507 17.8616 0.498155 17.8794 0.501451C19.8665 0.841199 21.7668 1.4343 23.5391 2.23943C23.5547 2.24597 23.5676 2.25699 23.5752 2.27213ZM11.7909 12.0377C11.8128 10.5194 10.6949 9.26296 9.29176 9.26296C7.90005 9.26296 6.793 10.5084 6.793 12.0377C6.793 13.5668 7.92195 14.8122 9.29176 14.8122C10.6838 14.8122 11.7909 13.5668 11.7909 12.0377ZM21.0302 12.0377C21.0521 10.5194 19.9343 9.26296 18.5315 9.26296C17.1394 9.26296 16.0324 10.5084 16.0324 12.0377C16.0324 13.5668 17.1613 14.8122 18.5315 14.8122C19.9343 14.8122 21.0302 13.5668 21.0302 12.0377Z" fill="#C6C6C6"/>
</svg>
