<svg width="20" height="20" viewBox="0 0 20 20" fill="none" xmlns="http://www.w3.org/2000/svg">
<path d="M14.5 12C14.5 12.3978 14.342 12.7794 14.0607 13.0607C13.7794 13.342 13.3978 13.5 13 13.5H4L1 16.5V4.5C1 4.10218 1.15804 3.72064 1.43934 3.43934C1.72064 3.15804 2.10218 3 2.5 3H13C13.3978 3 13.7794 3.15804 14.0607 3.43934C14.342 3.72064 14.5 4.10218 14.5 4.5V12Z" stroke="#111111" stroke-width="1.5" stroke-linecap="round" stroke-linejoin="round"/>
<path d="M6.5 13.5C7.00958 14.5196 7.94298 15.7605 8.91241 16.36C9.88185 16.9596 10.9991 17.2773 12.1389 17.2778C13.0921 17.2803 14.0325 17.0576 14.8833 16.6278L19 18L17.6278 13.8833C18.0576 13.0325 18.2803 12.0921 18.2778 11.1389C18.2773 9.99906 17.9596 8.88186 17.36 7.91242C16.7605 6.94298 15.9029 6.1596 14.8833 5.65002" stroke="#111111" stroke-width="1.5" stroke-linecap="round" stroke-linejoin="round"/>
</svg>
