<svg width="40" height="40" viewBox="0 0 40 40" fill="none" xmlns="http://www.w3.org/2000/svg">
<path d="M32.7669 8.36285C36.9541 14.4597 39.0219 21.3368 38.2489 29.254C38.2457 29.2875 38.2281 29.3182 38.2003 29.3384C35.0294 31.6443 31.9572 33.0436 28.9282 33.9717C28.9046 33.9788 28.8794 33.9784 28.856 33.9705C28.8327 33.9627 28.8124 33.9479 28.798 33.9281C28.0982 32.9638 27.4623 31.9472 26.9053 30.8796C26.8733 30.8167 26.9025 30.741 26.9683 30.7162C27.9782 30.3394 28.9384 29.8878 29.862 29.3531C29.9348 29.3109 29.9394 29.2076 29.8722 29.158C29.6762 29.0139 29.482 28.8625 29.2962 28.711C29.2614 28.683 29.2146 28.6775 29.1752 28.6963C23.1788 31.4386 16.61 31.4386 10.5426 28.6963C10.5032 28.6789 10.4564 28.6849 10.4226 28.7124C10.2372 28.8639 10.0425 29.0139 9.84837 29.158C9.78117 29.2076 9.78673 29.3109 9.85995 29.3531C10.7836 29.8777 11.7438 30.3394 12.7523 30.7181C12.8176 30.7429 12.8487 30.8167 12.8162 30.8796C12.2712 31.9485 11.6354 32.9652 10.9226 33.9294C10.8916 33.9685 10.8406 33.9864 10.7924 33.9717C7.77771 33.0436 4.70557 31.6443 1.53471 29.3384C1.50829 29.3182 1.48929 29.2861 1.48651 29.2526C0.840477 22.4044 2.15711 15.4704 6.96345 8.36147C6.97504 8.34265 6.99265 8.32796 7.01304 8.31924C9.37797 7.24435 11.9116 6.45356 14.5597 6.00193C14.6079 5.99459 14.6561 6.01662 14.6811 6.05885C15.0083 6.63255 15.3823 7.36827 15.6353 7.96951C18.4266 7.54727 21.2615 7.54727 24.1112 7.96951C24.3642 7.38112 24.7253 6.63255 25.0511 6.05885C25.0627 6.0379 25.0807 6.02112 25.1025 6.0109C25.1243 6.00068 25.1488 5.99754 25.1725 6.00193C27.822 6.45493 30.3556 7.24573 32.7187 8.31924C32.7395 8.32796 32.7567 8.34265 32.7669 8.36285ZM17.0544 21.3837C17.0836 19.3592 15.5932 17.6839 13.7223 17.6839C11.8666 17.6839 10.3906 19.3445 10.3906 21.3837C10.3906 23.4224 11.8958 25.0829 13.7223 25.0829C15.5783 25.0829 17.0544 23.4224 17.0544 21.3837ZM29.3736 21.3837C29.4028 19.3592 27.9123 17.6839 26.0419 17.6839C24.1858 17.6839 22.7098 19.3445 22.7098 21.3837C22.7098 23.4224 24.215 25.0829 26.0419 25.0829C27.9123 25.0829 29.3736 23.4224 29.3736 21.3837Z" fill="white"/>
</svg>
