<svg width="20" height="20" viewBox="0 0 20 20" fill="none" xmlns="http://www.w3.org/2000/svg">
<path d="M14.5 12C14.5 12.3978 14.342 12.7794 14.0607 13.0607C13.7794 13.342 13.3978 13.5 13 13.5H4L1 16.5V4.5C1 4.10218 1.15804 3.72064 1.43934 3.43934C1.72064 3.15804 2.10218 3 2.5 3H13C13.3978 3 13.7794 3.15804 14.0607 3.43934C14.342 3.72064 14.5 4.10218 14.5 4.5V12Z" stroke="#ECDB85" stroke-width="1.5" stroke-linecap="round" stroke-linejoin="round"/>
<path d="M6.5 13.4999C7.00958 14.5195 7.94298 15.7604 8.91241 16.3599C9.88185 16.9594 10.9991 17.2772 12.1389 17.2777C13.0921 17.2801 14.0325 17.0574 14.8833 16.6277L19 17.9999L17.6278 13.8832C18.0576 13.0324 18.2803 12.092 18.2778 11.1388C18.2773 9.99894 17.9596 8.88173 17.36 7.9123C16.7605 6.94286 15.9029 6.15948 14.8833 5.6499" stroke="#ECDB85" stroke-width="1.5" stroke-linecap="round" stroke-linejoin="round"/>
</svg>
