<svg width="20" height="20" viewBox="0 0 20 20" fill="none" xmlns="http://www.w3.org/2000/svg">
<path d="M5.2425 5.7215L3 10.2H16L13.7575 5.7215C13.6499 5.50491 13.484 5.32264 13.2784 5.19518C13.0729 5.06772 12.8359 5.00013 12.594 5H6.406C6.16414 5.00013 5.92712 5.06772 5.72158 5.19518C5.51604 5.32264 5.35013 5.50491 5.2425 5.7215Z" fill="#111111"/>
<path d="M5.2425 5.7215L5.68959 5.94537L5.69027 5.944L5.2425 5.7215ZM3 10.2L2.55292 9.97613C2.51812 10.0456 2.5 10.1223 2.5 10.2H3ZM3 14.1H2.5H3ZM16 10.2H16.5C16.5 10.1223 16.4819 10.0456 16.4471 9.97613L16 10.2ZM13.7575 5.7215L13.3097 5.944L13.3104 5.94537L13.7575 5.7215ZM12.594 5L12.5943 4.5H12.594V5ZM6.406 5V4.5L6.40573 4.5L6.406 5ZM4.79542 5.49763L2.55292 9.97613L3.44708 10.4239L5.68958 5.94537L4.79542 5.49763ZM2.5 10.2V14.1H3.5V10.2H2.5ZM2.5 14.1C2.5 14.5774 2.68964 15.0352 3.02721 15.3728L3.73431 14.6657C3.58429 14.5157 3.5 14.3122 3.5 14.1H2.5ZM3.02721 15.3728C3.36477 15.7104 3.82261 15.9 4.3 15.9V14.9C4.08783 14.9 3.88434 14.8157 3.73431 14.6657L3.02721 15.3728ZM4.3 15.9H14.7V14.9H4.3V15.9ZM14.7 15.9C15.1774 15.9 15.6352 15.7104 15.9728 15.3728L15.2657 14.6657C15.1157 14.8157 14.9122 14.9 14.7 14.9V15.9ZM15.9728 15.3728C16.3104 15.0352 16.5 14.5774 16.5 14.1H15.5C15.5 14.3122 15.4157 14.5157 15.2657 14.6657L15.9728 15.3728ZM16.5 14.1V10.2H15.5V14.1H16.5ZM16.4471 9.97613L14.2046 5.49763L13.3104 5.94537L15.5529 10.4239L16.4471 9.97613ZM14.2053 5.499C14.0562 5.19911 13.8265 4.94673 13.5419 4.77025L13.0149 5.62011C13.1414 5.69855 13.2435 5.81071 13.3097 5.944L14.2053 5.499ZM13.5419 4.77025C13.2573 4.59377 12.9291 4.50018 12.5943 4.5L12.5937 5.5C12.7426 5.50008 12.8884 5.54168 13.0149 5.62011L13.5419 4.77025ZM12.594 4.5H6.406V5.5H12.594V4.5ZM6.40573 4.5C6.07086 4.50018 5.74267 4.59377 5.45807 4.77025L5.98508 5.62011C6.11157 5.54168 6.25743 5.50008 6.40627 5.5L6.40573 4.5ZM5.45807 4.77025C5.17348 4.94673 4.94375 5.19911 4.79473 5.499L5.69027 5.944C5.7565 5.81071 5.8586 5.69855 5.98508 5.62011L5.45807 4.77025ZM3 10.7H16V9.7H3V10.7Z" fill="#111111"/>
<path d="M5.6001 12.8H5.6071" stroke="#111111" stroke-width="1.5" stroke-linecap="round" stroke-linejoin="round"/>
<path d="M16 10.2H3" stroke="#111111" stroke-linecap="round" stroke-linejoin="round"/>
<path d="M8.19971 12.8H8.20671" stroke="#111111" stroke-width="1.5" stroke-linecap="round" stroke-linejoin="round"/>
</svg>
