<svg width="20" height="20" viewBox="0 0 20 20" fill="none" xmlns="http://www.w3.org/2000/svg">
<path d="M7.81809 17.2727C8.21975 17.2727 8.54537 16.947 8.54537 16.5454C8.54537 16.1437 8.21975 15.8181 7.81809 15.8181C7.41643 15.8181 7.09082 16.1437 7.09082 16.5454C7.09082 16.947 7.41643 17.2727 7.81809 17.2727Z" stroke="#111111" stroke-linecap="round" stroke-linejoin="round"/>
<path d="M15.8181 17.2727C16.2198 17.2727 16.5454 16.947 16.5454 16.5454C16.5454 16.1437 16.2198 15.8181 15.8181 15.8181C15.4164 15.8181 15.0908 16.1437 15.0908 16.5454C15.0908 16.947 15.4164 17.2727 15.8181 17.2727Z" stroke="#111111" stroke-linecap="round" stroke-linejoin="round"/>
<path d="M5.63636 5.63636L6.85818 11.7382C6.92469 12.073 7.10684 12.3738 7.37276 12.5879C7.63868 12.8019 7.97142 12.9156 8.31273 12.9091H15.3818C15.7231 12.9156 16.0559 12.8019 16.3218 12.5879C16.5877 12.3738 16.7699 12.073 16.8364 11.7382L18 5.63636H5.63636Z" fill="#111111"/>
<path d="M2 1.5C1.72386 1.5 1.5 1.72386 1.5 2C1.5 2.27614 1.72386 2.5 2 2.5V1.5ZM4.90909 2L5.39937 1.90187C5.3526 1.66819 5.1474 1.5 4.90909 1.5V2ZM6.85818 11.7382L7.3486 11.6408L7.34846 11.6401L6.85818 11.7382ZM8.31273 12.9091V12.409L8.30315 12.4092L8.31273 12.9091ZM15.3818 12.9091L15.3914 12.4091H15.3818V12.9091ZM16.8364 11.7382L17.3268 11.8356L17.3275 11.8318L16.8364 11.7382ZM18 5.63636L18.4911 5.73003C18.5191 5.58365 18.4802 5.43245 18.3852 5.31764C18.2903 5.20283 18.149 5.13636 18 5.13636V5.63636ZM5.63636 5.63636V5.13636C5.48655 5.13636 5.34463 5.20354 5.24966 5.31941C5.15469 5.43528 5.11668 5.58763 5.1461 5.73453L5.63636 5.63636ZM2 2.5H4.90909V1.5H2V2.5ZM4.41881 2.09813L6.36791 11.8363L7.34846 11.6401L5.39937 1.90187L4.41881 2.09813ZM6.36776 11.8356C6.45713 12.2855 6.7019 12.6897 7.05923 12.9773L7.68629 12.1984C7.51179 12.0579 7.39225 11.8605 7.3486 11.6408L6.36776 11.8356ZM7.05923 12.9773C7.41655 13.265 7.86367 13.4178 8.32231 13.409L8.30315 12.4092C8.07916 12.4135 7.8608 12.3389 7.68629 12.1984L7.05923 12.9773ZM8.31273 13.4091H15.3818V12.4091H8.31273V13.4091ZM15.3722 13.409C15.8309 13.4178 16.278 13.265 16.6353 12.9773L16.0083 12.1984C15.8337 12.3389 15.6154 12.4135 15.3914 12.4092L15.3722 13.409ZM16.6353 12.9773C16.9926 12.6897 17.2374 12.2855 17.3268 11.8356L16.3459 11.6408C16.3023 11.8605 16.1828 12.0579 16.0083 12.1984L16.6353 12.9773ZM17.3275 11.8318L18.4911 5.73003L17.5089 5.5427L16.3452 11.6445L17.3275 11.8318ZM18 5.13636H5.63636V6.13636H18V5.13636ZM5.1461 5.73453L6.36791 11.8364L7.34845 11.64L6.12663 5.53819L5.1461 5.73453Z" fill="#111111"/>
</svg>
