<svg width="20" height="20" viewBox="0 0 20 20" fill="none" xmlns="http://www.w3.org/2000/svg">
<path d="M7.50033 18.3332C7.96056 18.3332 8.33366 17.9601 8.33366 17.4998C8.33366 17.0396 7.96056 16.6665 7.50033 16.6665C7.04009 16.6665 6.66699 17.0396 6.66699 17.4998C6.66699 17.9601 7.04009 18.3332 7.50033 18.3332Z" stroke="#111111" stroke-width="1.5" stroke-linecap="round" stroke-linejoin="round"/>
<path d="M16.6668 18.3332C17.1271 18.3332 17.5002 17.9601 17.5002 17.4998C17.5002 17.0396 17.1271 16.6665 16.6668 16.6665C16.2066 16.6665 15.8335 17.0396 15.8335 17.4998C15.8335 17.9601 16.2066 18.3332 16.6668 18.3332Z" stroke="#111111" stroke-width="1.5" stroke-linecap="round" stroke-linejoin="round"/>
<path d="M0.833496 0.833252H4.16683L6.40016 11.9916C6.47637 12.3752 6.68509 12.7199 6.98978 12.9652C7.29448 13.2105 7.67574 13.3407 8.06683 13.3333H16.1668C16.5579 13.3407 16.9392 13.2105 17.2439 12.9652C17.5486 12.7199 17.7573 12.3752 17.8335 11.9916L19.1668 4.99992H5.00016" stroke="#111111" stroke-width="1.5" stroke-linecap="round" stroke-linejoin="round"/>
</svg>
