<svg width="20" height="20" viewBox="0 0 20 20" fill="none" xmlns="http://www.w3.org/2000/svg">
<path d="M17.3445 2.89678C16.8309 3.10318 2.25326 9.35558 2.25326 9.35558C2.25326 9.35558 1.54726 9.60118 1.60326 10.0548C1.65926 10.5084 2.23526 10.716 2.23526 10.716L5.98726 12.0008C5.98726 12.0008 7.12006 15.78 7.34326 16.4972C7.56646 17.2156 7.74486 17.2324 7.74486 17.2324C7.95206 17.3244 8.14166 17.1776 8.14166 17.1776L10.5661 14.9288L14.3453 17.8764C15.3669 18.33 15.7385 17.3852 15.7385 17.3852L18.3421 3.81518C18.5725 2.76518 17.8869 2.67958 17.3445 2.89678Z" stroke="#111111" stroke-width="1.5" stroke-miterlimit="10"/>
<path d="M6 12.0001L12 9L8.5 13" fill="#111111"/>
<path d="M5.66458 11.3293C5.2941 11.5145 5.14394 11.965 5.32918 12.3355C5.51443 12.706 5.96494 12.8562 6.33542 12.6709L5.66458 11.3293ZM12 9L12.5644 9.49388L15.0762 6.62334L11.6646 8.32918L12 9ZM7.93557 12.5061C7.66281 12.8178 7.69439 13.2917 8.00612 13.5644C8.31785 13.8372 8.79167 13.8056 9.06443 13.4939L7.93557 12.5061ZM6.33542 12.6709L12.3354 9.67082L11.6646 8.32918L5.66458 11.3293L6.33542 12.6709ZM11.4356 8.50612L7.93557 12.5061L9.06443 13.4939L12.5644 9.49388L11.4356 8.50612Z" fill="#111111"/>
<path d="M8 17.2001L8.5 13L6.5 12.5" fill="#111111"/>
<path d="M8 17.2001L8.5 13L6.5 12.5" stroke="#111111" stroke-width="1.5" stroke-miterlimit="10" stroke-linecap="round" stroke-linejoin="round"/>
</svg>
