<svg width="40" height="40" viewBox="0 0 40 40" fill="none" xmlns="http://www.w3.org/2000/svg">
<path fill-rule="evenodd" clip-rule="evenodd" d="M5.85786 5.85786C9.60859 2.10714 14.6957 0 20 0C25.3043 0 30.3914 2.10714 34.1421 5.85786C37.8929 9.60859 40 14.6957 40 20C40 25.3043 37.8929 30.3914 34.1421 34.1421C30.3914 37.8929 25.3043 40 20 40C14.6957 40 9.60859 37.8929 5.85786 34.1421C2.10714 30.3914 0 25.3043 0 20C0 14.6957 2.10714 9.60859 5.85786 5.85786ZM26.3789 29.9489L29.9578 10.791C29.9578 10.791 30.0056 10.5405 30.0034 10.2905C30.0002 9.91556 29.6661 9.79347 29.3741 9.79602C28.8991 9.79917 28.2502 10.0398 28.2502 10.0398L7.0089 18.6935C7.0089 18.6935 6.07854 18.9997 6.08399 19.6246C6.09054 20.3746 6.99979 20.6287 6.99979 20.6287L12.1064 21.9392L24.3426 14.2503C24.8469 13.9334 25.3833 14.6056 24.9624 15.027L16.0937 23.9054L24.2662 30.5674C24.2662 30.5674 24.5656 30.8388 25.1415 30.8338C26.2255 30.8243 26.3789 29.9489 26.3789 29.9489Z" fill="white"/>
</svg>
