<svg width="20" height="20" viewBox="0 0 20 20" fill="none" xmlns="http://www.w3.org/2000/svg">
<path fill-rule="evenodd" clip-rule="evenodd" d="M18.5856 4.80526C18.7122 4.33158 18.5856 4 17.9947 4H16.0251C15.5186 4 15.2935 4.3 15.1669 4.63158C15.1669 4.63158 14.1681 7.37895 12.7472 9.14737C12.2829 9.66842 12.0859 9.82632 11.8327 9.82632C11.7061 9.82632 11.5232 9.66842 11.5232 9.19474V4.80526C11.5232 4.23684 11.3825 4 10.9605 4H7.8654C7.5559 4 7.35894 4.26842 7.35894 4.50526C7.35894 5.0421 8.06236 5.16842 8.14677 6.65263V9.90526C8.14677 10.6158 8.03423 10.7421 7.78099 10.7421C7.11978 10.7421 5.48784 7.99474 4.53118 4.83684C4.33422 4.25263 4.15133 4 3.64487 4H1.67529C1.11255 4 1 4.3 1 4.63158C1 5.21579 1.66122 8.12105 4.10913 11.9579C5.74107 14.5789 8.03423 16 10.1164 16C11.3684 16 11.5232 15.6842 11.5232 15.1474V13.1579C11.5232 12.5263 11.6357 12.4 12.0437 12.4C12.3392 12.4 12.8316 12.5579 13.9992 13.8211C15.3358 15.3211 15.5608 16 16.3065 16H18.2761C18.8388 16 19.1202 15.6842 18.9513 15.0684C18.7685 14.4526 18.1354 13.5526 17.2913 12.4789C16.827 11.8632 16.1377 11.2158 15.9407 10.8842C15.6453 10.4579 15.7297 10.2684 15.9407 9.90526C15.9407 9.88947 18.3464 6.1 18.5856 4.80526Z" fill="#111111"/>
</svg>
