<svg width="40" height="40" viewBox="0 0 40 40" fill="none" xmlns="http://www.w3.org/2000/svg">
<path fill-rule="evenodd" clip-rule="evenodd" d="M38.6205 10.2152C38.8938 9.3043 38.6205 8.66667 37.3453 8.66667H33.0945C32.0014 8.66667 31.5156 9.24357 31.2423 9.88119C31.2423 9.88119 29.0866 15.1644 26.0199 18.565C25.0179 19.567 24.5928 19.8706 24.0463 19.8706C23.773 19.8706 23.3783 19.567 23.3783 18.6561V10.2152C23.3783 9.12212 23.0747 8.66667 22.1638 8.66667H15.4839C14.8159 8.66667 14.3908 9.18284 14.3908 9.63829C14.3908 10.6706 15.909 10.9135 16.0912 13.7677V20.0225C16.0912 21.3888 15.8483 21.6317 15.3017 21.6317C13.8747 21.6317 10.3526 16.3485 8.28787 10.2759C7.86279 9.15248 7.46807 8.66667 6.375 8.66667H2.12417C0.909652 8.66667 0.666748 9.24357 0.666748 9.88119C0.666748 11.0046 2.09381 16.5914 7.37698 23.9696C10.8991 29.0099 15.8483 31.7426 20.342 31.7426C23.0443 31.7426 23.3783 31.1353 23.3783 30.103V26.2772C23.3783 25.0627 23.6212 24.8198 24.5017 24.8198C25.1394 24.8198 26.2021 25.1234 28.7222 27.5525C31.6067 30.437 32.0925 31.7426 33.7017 31.7426H37.9526C39.1671 31.7426 39.7743 31.1353 39.41 29.9512C39.0153 28.767 37.6489 27.0363 35.8271 24.9716C34.8252 23.7875 33.3374 22.5426 32.9123 21.905C32.2747 21.0852 32.4568 20.7208 32.9123 20.0225C32.9123 19.9921 38.1044 12.705 38.6205 10.2152Z" fill="white"/>
</svg>
