<svg width="30" height="30" viewBox="0 0 30 30" fill="none" xmlns="http://www.w3.org/2000/svg">
<path fill-rule="evenodd" clip-rule="evenodd" d="M28.9653 7.66139C29.1703 6.97822 28.9653 6.5 28.0089 6.5H24.8208C24.001 6.5 23.6366 6.93267 23.4317 7.41089C23.4317 7.41089 21.8149 11.3733 19.5149 13.9238C18.7634 14.6753 18.4446 14.903 18.0347 14.903C17.8297 14.903 17.5337 14.6753 17.5337 13.9921V7.66139C17.5337 6.84158 17.3059 6.5 16.6228 6.5H11.6129C11.1119 6.5 10.7931 6.88713 10.7931 7.22871C10.7931 8.00297 11.9317 8.18515 12.0683 10.3257V15.0168C12.0683 16.0416 11.8861 16.2238 11.4762 16.2238C10.4059 16.2238 7.76436 12.2614 6.21584 7.70693C5.89703 6.86436 5.60099 6.5 4.78119 6.5H1.59307C0.682178 6.5 0.5 6.93267 0.5 7.41089C0.5 8.25347 1.5703 12.4436 5.53267 17.9772C8.17426 21.7574 11.8861 23.8069 15.2564 23.8069C17.2832 23.8069 17.5337 23.3515 17.5337 22.5772V19.7079C17.5337 18.797 17.7158 18.6149 18.3762 18.6149C18.8545 18.6149 19.6515 18.8426 21.5416 20.6644C23.705 22.8277 24.0693 23.8069 25.2762 23.8069H28.4644C29.3753 23.8069 29.8307 23.3515 29.5574 22.4634C29.2614 21.5753 28.2366 20.2772 26.8703 18.7287C26.1188 17.8406 25.003 16.9069 24.6842 16.4287C24.2059 15.8139 24.3426 15.5406 24.6842 15.0168C24.6842 14.9941 28.5782 9.52871 28.9653 7.66139Z" fill="#C6C6C6"/>
</svg>
