<svg width="100" height="100" viewBox="0 0 100 100" fill="none" xmlns="http://www.w3.org/2000/svg">
<path d="M65.1 0H34.9C15.6253 0 0 15.6253 0 34.9V65.1C0 84.3747 15.6253 100 34.9 100H65.1C84.3747 100 100 84.3747 100 65.1V34.9C100 15.6253 84.3747 0 65.1 0Z" fill="white"/>
<path d="M40.8038 50.916C40.8069 53.644 40.2313 56.3415 39.1152 58.8305C37.999 61.3195 36.3676 63.544 34.3287 65.356C34.1824 65.4875 34.0459 65.63 33.9203 65.7815C33.3431 66.46 32.624 67.0045 31.8138 67.375C31.0035 67.746 30.1218 67.935 29.2308 67.928C28.3397 67.9215 27.461 67.7195 26.6564 67.3365C25.8518 66.953 25.1411 66.3985 24.5741 65.711C24.0071 65.0235 23.5978 64.22 23.3749 63.3575C23.152 62.4945 23.121 61.5935 23.2841 60.7175C23.4471 59.8415 23.8002 59.0115 24.3186 58.287C24.8369 57.562 25.5079 56.9595 26.2842 56.522C26.6772 56.307 27.0413 56.0435 27.368 55.737C29.6325 53.5505 31.3294 50.845 32.3117 47.8547C32.3771 47.6549 32.4395 47.4533 32.4989 47.25C32.7119 46.4918 33.1357 45.8096 33.721 45.2827C34.3064 44.7557 35.0292 44.4057 35.8055 44.2731C36.5818 44.1406 37.3798 44.231 38.1068 44.5339C38.8338 44.8368 39.4599 45.3398 39.9125 45.9843C40.1974 46.3958 40.3895 46.8643 40.4753 47.3573C40.5604 47.8115 40.6298 48.2736 40.6795 48.7369C40.7619 49.4604 40.8035 50.188 40.8038 50.916Z" fill="#111111"/>
<path d="M59.3076 50.916C59.3046 53.644 59.8801 56.3415 60.9961 58.831C62.1121 61.32 63.7436 63.544 65.7826 65.356C65.9286 65.4885 66.0651 65.6305 66.1911 65.7815C66.7686 66.46 67.4881 67.004 68.2986 67.3745C69.1091 67.745 69.9911 67.9335 70.8821 67.926C71.7731 67.919 72.6521 67.7165 73.4561 67.333C74.2606 66.9495 74.9711 66.3945 75.5381 65.7065C76.1046 65.0185 76.5136 64.215 76.7361 63.352C76.9581 62.489 76.9886 61.588 76.8251 60.712C76.6616 59.836 76.3081 59.0065 75.7891 58.282C75.2701 57.5575 74.5986 56.9555 73.8221 56.5185C73.4291 56.3035 73.0646 56.0395 72.7381 55.733C70.4756 53.546 68.7806 50.84 67.8011 47.8495C67.7356 47.6497 67.6731 47.4481 67.6141 47.2448C67.4011 46.4866 66.9771 45.8044 66.3916 45.2775C65.8066 44.7505 65.0836 44.4004 64.3076 44.2679C63.5311 44.1353 62.7331 44.2258 62.0061 44.5287C61.2791 44.8316 60.6531 45.3345 60.2006 45.9791C59.9146 46.3902 59.7221 46.8588 59.6361 47.3521C59.5491 47.8067 59.4811 48.2666 59.4336 48.7317C59.3496 49.4569 59.3076 50.186 59.3076 50.916Z" fill="#111111"/>
<path d="M57.4229 74.746C57.2924 74.99 57.0904 75.1885 56.8439 75.314C56.5369 75.26 56.2254 75.2335 55.9134 75.2345C55.7824 75.2345 55.6584 75.2345 55.5354 75.2475C53.5719 75.3785 51.9424 76.5365 51.3704 78.0995C51.2544 78.41 51.1834 78.735 51.1594 79.0655C51.0574 79.289 50.9079 79.487 50.7209 79.6465C50.5034 79.8405 50.2214 79.948 49.9299 79.948C49.6381 79.948 49.3566 79.8405 49.1387 79.6465C48.9523 79.487 48.8027 79.2885 48.7001 79.0655C48.6762 78.736 48.6053 78.4115 48.4895 78.102C47.9358 76.593 46.3952 75.4635 44.5208 75.2695C44.3299 75.2495 44.1381 75.2395 43.9462 75.2395C43.6919 75.239 43.4378 75.2565 43.1857 75.2905C42.9003 75.1305 42.6837 74.871 42.5771 74.5615C43.0274 73.996 43.7552 73.4975 44.6714 73.101C46.0641 72.5 47.907 72.136 49.9266 72.136C52.0209 72.136 53.9199 72.529 55.3284 73.1675C56.2824 73.5915 57.0129 74.135 57.4229 74.746Z" fill="#111111"/>
<path d="M27.3953 27.3652C27.3957 27.8095 27.3465 28.2524 27.2487 28.6859C27.2212 28.8041 27.1643 28.9134 27.0833 29.0038C27.0024 29.0942 26.8999 29.1626 26.7854 29.2029C25.5145 29.6681 24.2958 30.2651 23.1492 30.9843C21.4869 32.0189 19.9614 33.2585 18.6087 34.6741C17.4474 35.8733 16.4589 37.2283 15.6715 38.7003C15.606 38.8256 15.5043 38.9284 15.3797 38.9954C15.2551 39.0624 15.1133 39.0904 14.9725 39.0759C11.1257 38.6675 8.11523 34.8167 8.11523 30.1361C8.11523 27.4358 9.11523 25.017 10.699 23.3704C12.322 21.3704 15.1231 20.0523 18.3089 20.0523C23.3273 20.0523 27.3953 23.3259 27.3953 27.3652Z" fill="#111111"/>
<path d="M72.6045 27.3652C72.6045 27.8095 72.6535 28.2524 72.7515 28.6859C72.779 28.8041 72.8355 28.9134 72.9165 29.0038C72.9975 29.0942 73.1 29.1626 73.2145 29.2029C74.4855 29.6681 75.7045 30.2651 76.851 30.9843C78.513 32.0189 80.0385 33.2585 81.3915 34.6741C82.5525 35.8733 83.541 37.2283 84.3285 38.7003C84.394 38.8256 84.4955 38.9284 84.6205 38.9954C84.745 39.0624 84.887 39.0904 85.0275 39.0759C88.8745 38.6675 91.885 34.8167 91.885 30.1361C91.885 27.4358 90.885 25.017 89.301 23.3704C87.678 21.3704 84.877 20.0523 81.691 20.0523C76.673 20.0523 72.6045 23.3259 72.6045 27.3652Z" fill="#111111"/>
</svg>
