<svg width="119" height="91" viewBox="0 0 119 91" fill="none" xmlns="http://www.w3.org/2000/svg">
<path d="M55.8166 62C57.1141 72.9916 55.4075 78.7655 42.6548 88.0723" stroke="white"/>
<path d="M42.1533 81.1262C43.0311 81.8187 44.9993 83.6561 42.6549 88.0724C44.9175 87.0092 47.8454 86.1859 49.601 87.5708" stroke="white" stroke-linecap="round"/>
<path d="M9.98172 18.7053C9.98172 18.7053 9.93095 18.6654 9.82943 18.5854C9.72451 18.5169 9.60808 18.445 9.48014 18.3698C9.36371 18.2979 9.27097 18.2518 9.20191 18.2314C9.03132 18.1311 8.9295 17.9885 8.89644 17.8036C8.85999 17.6302 8.89194 17.4582 8.99228 17.2876C9.05189 17.2552 9.11527 17.1675 9.18241 17.0247C9.24955 16.8818 9.2967 16.7644 9.32385 16.6723C9.39704 16.5938 9.44448 16.539 9.46617 16.5078C9.49126 16.4652 9.55397 16.3586 9.65431 16.188C9.74654 16.0025 9.88384 15.749 10.0662 15.4274C10.2635 15.0978 10.4733 14.7468 10.6957 14.3745C10.9296 14.0055 11.1526 13.6522 11.3648 13.3144C11.577 12.9766 11.7607 12.693 11.916 12.4636C12.0827 12.2375 12.1885 12.1123 12.2332 12.0879C12.2332 12.0879 12.2383 12.0707 12.2484 12.0361C12.262 11.9901 12.2756 11.944 12.2892 11.898C12.2892 11.898 12.3102 11.8479 12.3522 11.7477C12.4092 11.6394 12.5041 11.5298 12.6369 11.4188C12.7203 11.3058 12.8013 11.1795 12.8799 11.0401C12.9586 10.9006 13.0047 10.8079 13.0183 10.7618C13.0813 10.7178 13.1853 10.5984 13.3304 10.4035C13.4903 10.2004 13.6428 10.0014 13.7879 9.80648C13.9112 9.64268 14.0437 9.46907 14.1854 9.28565C14.3386 9.10562 14.466 8.94927 14.5677 8.81661C14.6808 8.68734 14.7374 8.6227 14.7374 8.6227C14.751 8.57666 14.7578 8.55364 14.7578 8.55364C14.7612 8.54213 14.7629 8.53638 14.7629 8.53638C14.8225 8.50391 14.9997 8.30595 15.2946 7.9425C15.6043 7.57093 16.013 7.09717 16.5206 6.52121C16.5938 6.44271 16.7053 6.3192 16.855 6.15067C17.0082 5.97064 17.0916 5.85761 17.1051 5.81157C17.3287 5.68982 17.5126 5.68148 17.6567 5.78655C17.8158 5.8835 17.9366 6.02545 18.0191 6.21241C18.1131 6.40277 18.1702 6.56974 18.1904 6.71332L18.2816 7.04047L17.2763 8.0952C16.9971 8.36318 16.7494 8.60917 16.5332 8.83318C16.3286 9.06058 16.2194 9.1973 16.2059 9.24334C16.2059 9.24334 16.1567 9.30392 16.0584 9.42507C15.9717 9.54961 15.8615 9.71105 15.728 9.90938C15.5978 10.0962 15.4677 10.283 15.3375 10.4698C15.1057 10.7893 14.8966 11.0529 14.7102 11.2607C14.5273 11.457 14.429 11.5781 14.4154 11.6242C14.4222 11.6012 14.5424 11.6178 14.776 11.6742C15.0211 11.734 15.3221 11.8164 15.6789 11.9216C16.0357 12.0269 16.3982 12.1338 16.7666 12.2424C17.1498 12.3428 17.491 12.4372 17.7903 12.5254C18.093 12.6022 18.3052 12.646 18.4271 12.6569L19.3504 12.8353L20.2869 11.4413C20.474 11.1461 20.7102 10.7904 20.9956 10.3741C21.281 9.95785 21.5287 9.60554 21.7389 9.31719C22.0791 8.84203 22.3834 8.5314 22.6517 8.38531C22.9234 8.22771 23.1282 8.16927 23.2664 8.21C23.3009 8.22018 23.354 8.27337 23.4257 8.36959C23.5124 8.45768 23.5956 8.55729 23.6754 8.6684C23.7553 8.77952 23.7965 8.873 23.7992 8.94884C23.8999 9.11618 23.9208 9.27872 23.8618 9.43647C23.8143 9.59761 23.6594 9.7834 23.3972 9.99383C23.1214 10.2503 22.8659 10.544 22.6307 10.875C22.4104 11.1979 22.2203 11.4609 22.0603 11.6639C22.0196 11.802 21.9684 11.912 21.9067 11.9939C21.8484 12.0643 21.7894 12.1158 21.7298 12.1482C21.7 12.1645 21.6285 12.2372 21.5153 12.3665C21.4022 12.4957 21.2947 12.6267 21.1931 12.7594C21.0914 12.892 21.0355 12.9756 21.0253 13.0102C21.0015 13.0907 20.9554 13.1835 20.887 13.2884C20.8185 13.3933 20.7544 13.462 20.6948 13.4945C20.6514 13.5567 20.5487 13.7141 20.3867 13.9666C20.2247 14.2191 20.0359 14.52 19.8203 14.8693C19.6081 15.207 19.3919 15.5374 19.1716 15.8602C18.9546 16.1716 18.7662 16.4288 18.6062 16.6319C18.5825 16.7124 18.5232 16.8075 18.4283 16.9172C18.3368 17.0153 18.2775 17.1104 18.2503 17.2025C18.1636 17.327 18.0551 17.4827 17.925 17.6695C17.7948 17.8564 17.7212 17.9786 17.7043 18.0361C17.5687 18.2839 17.4154 18.5702 17.2446 18.8952C17.0852 19.2235 16.9435 19.5132 16.8194 19.7644C16.7068 20.0189 16.6454 20.1635 16.6352 20.198C16.3258 20.1443 16.1132 20.0378 15.9975 19.8786C15.8818 19.7194 15.7674 19.5981 15.6544 19.5147C15.473 19.3236 15.3882 19.1235 15.3998 18.9142C15.4196 18.7199 15.5318 18.509 15.7365 18.2816C15.8212 18.2065 15.9564 18.0024 16.1422 17.6694C16.3429 17.3282 16.5419 16.9928 16.7392 16.6631C16.8592 16.5108 16.9985 16.3142 17.1571 16.0732C17.3157 15.8322 17.4669 15.5953 17.6106 15.3625C17.7692 15.1215 17.9045 14.9174 18.0163 14.7502C18.1282 14.583 18.199 14.4913 18.2288 14.4751C18.2424 14.429 18.2543 14.3887 18.2645 14.3542C18.2746 14.3197 18.2797 14.3024 18.2797 14.3024C18.2635 14.2726 18.1535 14.2214 17.9497 14.1488C17.7493 14.0647 17.4863 13.9809 17.1606 13.8974C16.8498 13.8057 16.5069 13.7171 16.1318 13.6315C15.7601 13.5345 15.4005 13.4597 15.0531 13.4073C14.9265 13.37 14.7424 13.3157 14.5007 13.2444C14.2705 13.1766 14.1093 13.129 14.0172 13.1019C13.8906 13.0646 13.7813 13.0323 13.6892 13.0052C13.6086 12.9814 13.5683 12.9695 13.5683 12.9695C13.5351 12.9973 13.4552 13.0988 13.3284 13.2741C13.2132 13.4528 13.0688 13.6667 12.8952 13.9158C12.7332 14.1683 12.5637 14.4248 12.3868 14.6854C12.2214 14.9494 12.0685 15.1921 11.9282 15.4134C11.8028 15.6267 11.7133 15.7817 11.6597 15.8785C11.5526 16.0721 11.4129 16.3124 11.2407 16.5994C11.08 16.8898 10.9061 17.1826 10.719 17.4777C10.54 17.7878 10.3804 18.0535 10.24 18.2748C10.1112 18.4996 10.0251 18.6431 9.98172 18.7053ZM22.4517 20.2804C22.4328 20.1747 22.3564 20.0521 22.2224 19.9125C22.0999 19.7763 22.0455 19.6852 22.0591 19.6392C22.0726 19.5931 22.0642 19.5156 22.0338 19.4065C22.0183 19.2894 21.9943 19.201 21.9619 19.1414C21.9247 19.0553 21.9912 18.8935 22.1613 18.6559C22.3348 18.4068 22.5714 18.1138 22.8709 17.7767C23.1705 17.4397 23.489 17.102 23.8265 16.7636C23.9457 16.6987 24.0734 16.605 24.2096 16.4825C24.3458 16.36 24.4437 16.2826 24.5033 16.2501C24.5169 16.204 24.5461 16.1689 24.5908 16.1445C24.6389 16.1086 24.6859 16.0975 24.732 16.1111L24.9516 15.8756C24.9882 15.8363 25.0844 15.7646 25.2402 15.6604C25.4075 15.5596 25.6013 15.4541 25.8214 15.3439C26.045 15.2221 26.2652 15.1119 26.4819 15.0132C26.7102 14.9178 26.8921 14.8526 27.0276 14.8175C27.3168 14.7276 27.5863 14.7258 27.8361 14.8119C28.0975 14.9015 28.2982 15.0483 28.4382 15.2522C28.4626 15.2969 28.517 15.388 28.6016 15.5256C28.6976 15.6665 28.8018 15.8223 28.9141 15.993C29.0379 16.1672 29.1421 16.323 29.2267 16.4605L29.6975 17.2186L29.1494 17.9953C28.864 18.4116 28.705 18.8026 28.6722 19.1683C28.6395 19.5339 28.6606 19.8654 28.7355 20.1628C28.7558 20.3064 28.8017 20.4262 28.8734 20.5225C28.9567 20.6221 29.0755 20.7071 29.2298 20.7777C29.3185 20.8163 29.3946 20.8763 29.4583 20.9576C29.5219 21.0389 29.535 21.1429 29.4977 21.2695C29.4162 21.5457 29.305 21.7319 29.1641 21.828C29.0381 21.9159 28.9141 21.9544 28.7922 21.9435C28.3988 21.8776 28.0481 21.7304 27.7402 21.5019C27.4322 21.2735 27.2181 20.8538 27.098 20.2429C27.0723 20.1603 27.0464 20.015 27.0201 19.8071C27.0087 19.5911 27.0058 19.4526 27.0112 19.3916C26.9482 19.4356 26.8629 19.4918 26.7551 19.5601C26.6623 19.6203 26.5712 19.6747 26.4818 19.7234C25.4202 20.3112 24.5586 20.6451 23.8969 20.7253C23.2501 20.7973 22.7684 20.649 22.4517 20.2804ZM23.8238 19.1274C23.901 19.1626 24.0395 19.1597 24.2393 19.1185C24.4425 19.0658 24.7219 18.9668 25.0775 18.8215C25.5673 18.6031 25.971 18.4218 26.2887 18.2778C26.6065 18.1338 26.9371 17.9248 27.2806 17.6507L27.8437 17.1412C27.8067 16.8425 27.754 16.6393 27.6856 16.5316C27.6173 16.4239 27.5371 16.3564 27.445 16.3293C27.2954 16.2852 27.0882 16.3304 26.8233 16.465C26.5618 16.5881 26.2444 16.7947 25.8711 17.085C25.5126 17.3671 25.0925 17.7312 24.6107 18.1771C24.3864 18.3862 24.1984 18.5998 24.0465 18.8177C23.8981 19.0242 23.8238 19.1274 23.8238 19.1274ZM33.0442 23.5163C32.9786 23.4844 32.8706 23.3838 32.7204 23.2143C32.5817 23.0483 32.464 22.8322 32.3673 22.566C32.2856 22.2917 32.2824 21.9843 32.3578 21.6437C32.404 21.4446 32.4732 21.2523 32.5654 21.0668C32.6576 20.8814 32.7763 20.6911 32.9213 20.4962C33.1145 20.2654 33.2985 20.0444 33.4734 19.8333C33.6597 19.6255 33.8461 19.4177 34.0325 19.2099C34.389 18.7646 34.695 18.4482 34.9504 18.2608C35.2173 18.0768 35.4371 18.0102 35.6098 18.0611C35.8562 18.1588 36.0467 18.3401 36.1813 18.605C36.3159 18.8699 36.3486 19.0984 36.2794 19.2907C36.2292 19.376 36.1509 19.4718 36.0445 19.578C35.9496 19.6877 35.8375 19.7922 35.7081 19.8917C35.5028 19.9938 35.3287 20.1176 35.1857 20.2631C35.0576 20.4005 34.9268 20.5683 34.7933 20.7667C34.5588 21.0103 34.3975 21.1754 34.3094 21.262C34.2328 21.3521 34.142 21.4692 34.0369 21.6133C34.0992 21.6567 34.1591 21.6869 34.2167 21.7039C34.2891 21.7127 34.365 21.7101 34.4442 21.6959C34.5269 21.6702 34.6088 21.6256 34.6901 21.562C34.9652 21.3929 35.1772 21.2677 35.3263 21.1866C35.4753 21.1054 35.6128 21.0208 35.7389 20.9329C35.7836 20.9085 35.9021 20.8246 36.0946 20.6812C36.2904 20.5263 36.4862 20.3713 36.682 20.2164C36.8927 20.0533 37.037 19.9457 37.115 19.8936C37.2444 19.7942 37.3531 19.7011 37.4412 19.6145C37.5408 19.5313 37.6289 19.4447 37.7055 19.3547C37.7726 19.2118 37.874 19.1228 38.0094 19.0877C38.1449 19.0526 38.284 19.0686 38.4269 19.1357C38.6116 19.3153 38.7405 19.4722 38.8136 19.6063C38.8981 19.7438 38.9502 19.9281 38.9696 20.159C38.9932 20.2911 38.944 20.458 38.822 20.6597C38.7034 20.8499 38.4811 21.1159 38.1551 21.4577C38.0087 21.6147 37.863 21.7906 37.7179 21.9856C37.5763 22.169 37.4766 22.3586 37.4189 22.5542C37.3782 22.6923 37.3673 22.8142 37.3862 22.9199C37.4309 22.8955 37.5335 22.8445 37.694 22.7667C37.858 22.6774 38.0426 22.5817 38.2479 22.4796C38.4565 22.366 38.6354 22.2686 38.7844 22.1874C38.8027 22.1678 38.8898 22.1059 39.0456 22.0017C39.2163 21.8894 39.3332 21.8113 39.3962 21.7673L40.3637 21.0955C40.4714 21.0272 40.591 20.9186 40.7225 20.7697C40.8655 20.6242 41.0132 20.5051 41.1656 20.4124C41.3181 20.3198 41.4664 20.3259 41.6105 20.431C41.953 20.6696 42.1346 21.0297 42.1553 21.5112C42.0853 21.7908 41.9446 22.0558 41.7332 22.3063C41.5366 22.5486 41.3519 22.8569 41.1789 23.2313C41.105 23.3971 41.0284 23.5935 40.949 23.8203C40.873 24.0356 40.8316 24.1547 40.8248 24.1778C40.8748 24.3051 40.9659 24.357 41.0979 24.3334C41.23 24.3098 41.3495 24.3075 41.4565 24.3265C41.6745 24.4783 41.76 24.6975 41.7131 24.9839C41.6695 25.2588 41.5194 25.471 41.2626 25.6205C41.1008 25.6603 40.9514 25.6789 40.8146 25.6761C40.6927 25.6651 40.5817 25.6387 40.4815 25.5966C40.3075 25.5078 40.1691 25.4044 40.0663 25.2865C39.9783 25.1605 39.9117 25.047 39.8664 24.9461C39.8245 24.8336 39.7896 24.7608 39.7619 24.7276C39.6611 24.5603 39.5901 24.3767 39.549 24.1769C39.5078 23.9771 39.5123 23.7282 39.5627 23.4303C39.4698 23.4905 39.3266 23.5734 39.1328 23.6789C38.9391 23.7844 38.7436 23.8956 38.5465 24.0127C38.3527 24.1182 38.1813 24.2115 38.0323 24.2927C37.8866 24.3623 37.8138 24.3972 37.8138 24.3972C37.5937 24.5074 37.3888 24.5658 37.1991 24.5725C37.0095 24.5791 36.8122 24.5272 36.607 24.4167C36.4615 24.2737 36.3279 24.0904 36.2062 23.8668C36.0878 23.6318 36.0226 23.4499 36.0105 23.3212C36.0018 23.181 35.992 23.0656 35.9813 22.9748C35.9739 22.8725 35.9689 22.7835 35.9662 22.7076C35.9717 22.6467 35.9754 22.5915 35.9775 22.5421C35.9796 22.4926 35.9799 22.449 35.9786 22.411C35.9156 22.455 35.8245 22.5095 35.7052 22.5744C35.6009 22.6312 35.4891 22.6921 35.3699 22.757C35.2541 22.8104 35.1399 22.8581 35.0275 22.9C34.5872 23.1205 34.2627 23.2875 34.054 23.4011C33.8487 23.5033 33.6973 23.5712 33.5998 23.605C33.5172 23.6307 33.4183 23.6266 33.3032 23.5926L33.0442 23.5163ZM49.8376 28.8057C49.5181 28.5739 49.2908 28.2629 49.1556 27.8727C49.0354 27.4745 48.9818 27.0833 48.9949 26.6994C48.9353 26.7318 48.8757 26.7643 48.8161 26.7968C48.7714 26.8211 48.7117 26.8536 48.6372 26.8942C48.4103 27.0274 48.1528 27.1579 47.8649 27.2857C47.577 27.4135 47.2919 27.5109 47.0094 27.5777C46.7304 27.633 46.4734 27.6136 46.2385 27.5193C46.0917 27.3384 45.9489 27.1649 45.8102 26.9989C45.6864 26.8248 45.6107 26.6148 45.5831 26.3689C45.5865 26.3574 45.5824 26.35 45.5709 26.3466C45.5709 26.3466 45.5726 26.3408 45.576 26.3293C45.562 26.0374 45.5625 25.7811 45.5775 25.5604C45.6075 25.3315 45.7038 25.0471 45.8666 24.7073C46.0409 24.3708 46.3226 23.9034 46.7117 23.305C46.8737 23.0526 47.0415 22.8018 47.215 22.5527C47.3919 22.2921 47.5604 22.0603 47.7203 21.8572C47.8837 21.6426 48.0294 21.4667 48.1575 21.3293C48.2856 21.1919 48.3909 21.1104 48.4736 21.0847C48.5311 21.1017 48.5829 21.1169 48.6289 21.1305C48.6784 21.1326 48.7261 21.1404 48.7722 21.154C48.8758 21.1845 48.9854 21.2794 49.1011 21.4386C49.1762 21.5233 49.2439 21.6121 49.3041 21.7049C49.3758 21.8011 49.4147 21.8814 49.4207 21.9457C49.4524 22.0927 49.3548 22.3391 49.1277 22.685C48.9006 23.0309 48.6403 23.4046 48.3468 23.8059C48.0682 24.1992 47.8028 24.5901 47.5506 24.9786C47.3133 25.3591 47.1838 25.6712 47.1619 25.9149C47.2987 25.9177 47.4257 25.9114 47.5429 25.8959C47.6749 25.8723 47.7989 25.8338 47.9147 25.7804C48.1511 25.6999 48.377 25.5914 48.5925 25.4547C48.8079 25.3181 49.002 25.1689 49.1748 25.0072C49.3625 24.8373 49.5164 24.6763 49.6363 24.524C49.818 24.2898 49.978 24.0867 50.1162 23.9148C50.2579 23.7314 50.3721 23.5774 50.4589 23.4529C50.549 23.3168 50.6151 23.1987 50.6572 23.0985C50.7107 23.0017 50.7494 22.913 50.7732 22.8324C50.8227 22.6218 50.8899 22.479 50.9746 22.4039C51.0742 22.3207 51.2313 22.2544 51.446 22.2051C51.5381 22.2323 51.6285 22.2652 51.7172 22.3038C51.8093 22.331 51.8939 22.3622 51.9711 22.3975C52.0394 22.5052 52.1043 22.6244 52.1659 22.7551C52.2423 22.8778 52.313 22.9987 52.3779 23.1179C52.3919 23.4098 52.2871 23.7229 52.0634 24.0573C51.8546 24.3836 51.6292 24.7237 51.3872 25.0778C51.1418 25.4433 50.9194 25.8156 50.7201 26.1947C50.5356 26.5657 50.4914 26.9279 50.5873 27.2815C50.7837 27.2518 50.972 27.2073 51.1522 27.1478C51.3357 27.0768 51.5193 27.0058 51.7029 26.9348C51.8864 26.8639 52.0666 26.8044 52.2434 26.7564C52.3936 26.9258 52.4781 27.1697 52.4969 27.488C52.5156 27.8063 52.4944 28.069 52.4333 28.2762C52.3852 28.3121 52.3331 28.3405 52.2768 28.3614C52.2321 28.3858 52.1817 28.4084 52.1254 28.4294C51.9825 28.5749 51.763 28.7041 51.4669 28.817C51.1743 28.9183 50.8763 28.9743 50.5729 28.985C50.2695 28.9956 50.0244 28.9358 49.8376 28.8057ZM66.9705 34.1202C66.7565 34.0821 66.5859 33.9818 66.4587 33.8191C66.3315 33.6565 66.2423 33.4926 66.1909 33.3273C66.1301 33.1092 66.1066 32.8708 66.1203 32.6121C66.1374 32.342 66.1782 32.0975 66.2427 31.8788C66.2461 31.8673 66.2437 31.8541 66.2356 31.8392C66.239 31.8277 66.2407 31.8219 66.2407 31.8219C66.2441 31.8104 66.2383 31.8087 66.2234 31.8168C66.0412 31.9257 65.7854 32.0505 65.4562 32.1912C65.1419 32.3237 64.8171 32.4281 64.4819 32.5044C64.1615 32.5726 63.8937 32.5686 63.6784 32.4927C63.5437 32.4404 63.4242 32.3364 63.32 32.1806C63.2307 32.0166 63.1581 31.8388 63.102 31.6471C63.0459 31.4554 63.0193 31.2912 63.0221 31.1544C63.0303 30.9567 63.1301 30.6608 63.3213 30.2668C63.5159 29.8613 63.7587 29.4199 64.0495 28.9427C64.3553 28.4573 64.6773 28.0018 65.0155 27.5761C65.3571 27.1388 65.6773 26.7954 65.9761 26.5457C66.2898 26.2879 66.5445 26.1878 66.7402 26.2455C66.9128 26.2964 67.0353 26.4326 67.1076 26.6541C67.1833 26.8641 67.2296 27.0467 67.2464 27.2017C67.2646 27.3948 67.2635 27.5258 67.2431 27.5949C67.2261 27.6524 67.134 27.7316 66.9666 27.8324C66.8176 27.9135 66.6407 28.0678 66.4361 28.2952C66.2348 28.5111 66.0233 28.7615 65.8017 29.0465C65.5835 29.3199 65.3818 29.5795 65.1968 29.8252C65.0232 30.0743 64.884 30.2709 64.7789 30.4151C64.7185 30.5349 64.6667 30.6259 64.6233 30.6882C64.5799 30.7505 64.5389 30.826 64.5002 30.9147C64.5232 30.9214 64.5463 30.9282 64.5693 30.935C64.6072 30.9337 64.6394 30.9307 64.6658 30.9259C64.9082 30.9099 65.1802 30.8149 65.4817 30.6411C65.7946 30.4706 66.1155 30.2524 66.4441 29.9865C66.7761 29.7091 67.0983 29.4225 67.4107 29.1268C67.738 28.823 68.0453 28.5445 68.3326 28.2914C68.6233 28.0268 68.8723 27.8188 69.0796 27.6672C69.3018 27.5075 69.4648 27.443 69.5683 27.4735C69.6868 27.496 69.8165 27.5655 69.9573 27.682C70.1014 27.7871 70.2083 27.9125 70.278 28.0581C70.3626 28.1956 70.373 28.3301 70.3092 28.4614C70.1851 28.7125 69.9641 29.0165 69.6463 29.3731C69.3318 29.7183 68.9997 30.102 68.65 30.5244C68.3118 30.9501 68.0203 31.4084 67.7755 31.8992C67.6514 32.1503 67.5991 32.3914 67.6186 32.6223C67.6415 32.8417 67.7046 33.073 67.8081 33.3162C67.9277 33.5892 67.8765 33.8055 67.6542 33.9652C67.4469 34.1168 67.219 34.1684 66.9705 34.1202ZM72.8274 35.6782C72.5423 35.6692 72.2752 35.578 72.0261 35.4044C71.9049 35.3061 71.8061 35.1957 71.7297 35.0731C71.6533 34.9504 71.6049 34.8173 71.5847 34.6738C71.5915 34.6507 71.6302 34.5621 71.7007 34.4077C71.7861 34.2452 71.8716 34.0828 71.957 33.9203C72.0574 33.7497 72.1184 33.6488 72.1401 33.6177C72.42 33.2624 72.6752 32.906 72.9057 32.5486C73.1396 32.1797 73.3596 31.7942 73.5657 31.392C73.782 30.9554 73.9489 30.623 74.0662 30.3949C74.1869 30.1552 74.2815 29.9829 74.3499 29.878C74.4218 29.7616 74.4811 29.6665 74.5279 29.5927C74.5367 29.5202 74.5886 29.4292 74.6835 29.3196C74.7899 29.2133 74.8746 29.1382 74.9376 29.0942C75.1774 29.0023 75.4541 28.9337 75.7676 28.8886C76.0812 28.8434 76.3555 28.868 76.5904 28.9623C76.6662 28.9596 76.7485 28.9776 76.8372 29.0163C76.9259 29.0549 77.0105 29.0862 77.0911 29.1099C77.175 29.1222 77.2485 29.1063 77.3115 29.0623C77.4706 29.1593 77.6365 29.2332 77.8091 29.2841C77.9933 29.3384 78.1717 29.391 78.3444 29.4419C78.5319 29.4847 78.7086 29.5431 78.8745 29.617C79.0443 29.8047 79.1502 29.9548 79.1921 30.0672C79.2489 30.1715 79.3176 30.3419 79.398 30.5783C79.3173 30.7672 79.2014 30.9269 79.0503 31.0575C78.9141 31.18 78.7309 31.2073 78.5006 31.1394C78.4086 31.1123 78.3107 31.0834 78.2071 31.0529C78.1151 31.0257 78.023 30.9986 77.9309 30.9714C77.7237 30.9103 77.5091 30.8533 77.287 30.8003C77.0764 30.7508 76.8601 30.6995 76.638 30.6465C76.4274 30.5969 76.2135 30.5589 75.9961 30.5323C75.954 30.6325 75.9062 30.731 75.8527 30.8278C75.8025 30.9131 75.7523 30.9984 75.7022 31.0837C75.5984 31.2658 75.4855 31.4577 75.3635 31.6594C75.2564 31.853 75.1435 32.0449 75.0249 32.2351C74.9096 32.4138 74.7788 32.5817 74.6324 32.7387C74.5626 32.8057 74.5026 32.8818 74.4525 32.9671C74.4172 33.0443 74.3762 33.1198 74.3294 33.1936C74.2094 33.3459 74.0891 33.5418 73.9684 33.7815C73.8626 34.013 73.7476 34.2543 73.6235 34.5055C73.5028 34.7452 73.374 34.9699 73.2371 35.1797C73.1117 35.393 72.9751 35.5591 72.8274 35.6782ZM78.2309 41.6815C78.1605 41.6232 78.0594 41.4996 77.9274 41.3106C77.807 41.1249 77.7015 40.9312 77.6109 40.7293C77.5284 40.5423 77.4974 40.4143 77.5177 40.3453C77.5381 40.2762 77.6212 40.1005 77.7669 39.8182C77.9093 39.5475 78.0894 39.2127 78.307 38.814C78.5328 38.4302 78.7677 38.0365 79.0118 37.6331C79.2639 37.2445 79.5026 36.902 79.7276 36.6056C79.7676 36.5548 79.8984 36.387 80.12 36.102C80.3566 35.8089 80.6077 35.4451 80.8735 35.0105C81.0538 34.7384 81.2748 34.4345 81.5364 34.0988C81.798 33.7631 82.0654 33.4291 82.3385 33.0968C82.6151 32.7529 82.8493 32.4467 83.0411 32.1779C83.2329 31.9092 83.4363 31.6439 83.6511 31.382C83.8694 31.1085 83.991 30.9505 84.0161 30.9078C84.0595 30.8456 84.1398 30.8067 84.2569 30.7912C84.389 30.7676 84.5177 30.7555 84.643 30.7549C84.7716 30.7428 84.8549 30.7361 84.8929 30.7347C85.117 30.7383 85.27 30.8772 85.3517 31.1515C85.3787 31.2721 85.3478 31.4194 85.259 31.5933C85.185 31.7592 85.0715 31.9321 84.9183 32.1122L84.6957 32.4218L85.3579 32.467C85.4615 32.4975 85.6037 32.5457 85.7845 32.6115C85.9652 32.6773 86.1402 32.7414 86.3095 32.8039C86.4903 32.8697 86.6118 32.9243 86.6741 32.9677C86.9469 33.0606 87.1216 33.1684 87.198 33.291C87.2859 33.4171 87.3481 33.5668 87.3846 33.7401C87.4252 33.8147 87.4705 33.9156 87.5205 34.0429C87.5739 34.1588 87.5928 34.2644 87.5772 34.3599C87.5655 34.5692 87.4804 34.7943 87.3218 35.0352C87.1746 35.2796 86.9855 35.5179 86.7545 35.75C86.5383 35.974 86.2984 36.1722 86.0349 36.3448C85.7862 36.5091 85.5586 36.6234 85.352 36.6876C85.2233 36.6997 85.1045 36.721 84.9954 36.7514C84.8898 36.7703 84.8369 36.7797 84.8369 36.7797C84.8085 36.8339 84.6588 36.8961 84.3878 36.9663C84.1284 37.04 83.8304 37.096 83.4938 37.1343C83.1721 37.1646 82.8911 37.163 82.6507 37.1297C82.5667 37.1174 82.4482 37.095 82.2952 37.0624C82.1422 37.0298 82.0322 36.9786 81.9652 36.9088C81.8454 36.8484 81.7624 36.8115 81.7164 36.7979C81.6704 36.7843 81.6405 36.8006 81.627 36.8466C81.6087 36.8662 81.4738 37.0266 81.2224 37.3278C80.9709 37.629 80.6747 38.0609 80.3337 38.6234C79.9181 39.2265 79.5785 39.7206 79.3148 40.1057C79.0477 40.5024 78.8383 40.8097 78.6864 41.0277C78.5461 41.249 78.4434 41.4064 78.3783 41.4998C78.3099 41.6047 78.2607 41.6653 78.2309 41.6815ZM82.4893 35.4495C82.5035 35.5287 82.6176 35.5873 82.8315 35.6254C83.0489 35.652 83.3052 35.6525 83.6005 35.627C83.8958 35.6014 84.1673 35.5501 84.4153 35.4731C84.6781 35.388 84.8505 35.2699 84.9325 35.1189C85.2706 34.9059 85.5101 34.7513 85.651 34.6552C85.7953 34.5476 85.8218 34.4366 85.7305 34.3221C85.6582 34.1006 85.4995 33.96 85.2544 33.9002C85.0208 33.8438 84.61 33.8791 84.0221 34.006C83.8061 34.0174 83.6551 34.0417 83.569 34.0789C83.4864 34.1045 83.4068 34.1624 83.3302 34.2524C83.2651 34.3458 83.1469 34.4923 82.9754 34.692C82.7971 34.9147 82.6721 35.0842 82.6002 35.2007C82.5283 35.3171 82.4914 35.4 82.4893 35.4495ZM90.6892 40.6634C90.5396 40.6193 90.4272 40.5549 90.3521 40.4702C90.2885 40.3889 90.2087 40.2778 90.1126 40.1368C89.9618 39.8422 89.8564 39.5421 89.7963 39.2366C89.7478 38.9346 89.7696 38.6908 89.8618 38.5053C89.9235 38.4234 89.9605 38.3405 89.9727 38.2565C89.9999 38.1644 90.0134 38.1184 90.0134 38.1184C89.9728 38.0439 89.9658 38.0042 89.9922 37.9995C90.022 37.9833 90.0552 37.9555 90.0918 37.9163C90.1608 37.9366 90.2025 37.8801 90.2168 37.7467C90.221 37.6479 90.3132 37.4624 90.4935 37.1903C90.6887 36.91 90.9134 36.6573 91.1675 36.4319C91.2705 36.3372 91.4182 36.2181 91.6106 36.0747C91.8065 35.9197 92.0121 35.7739 92.2275 35.6373C92.4579 35.4925 92.6591 35.3829 92.8311 35.3086C93.1902 35.1517 93.5126 35.0341 93.7984 34.9557C94.0958 34.8808 94.3795 34.8518 94.6497 34.8689C94.9199 34.8861 95.1874 34.9336 95.4521 35.0117C95.7283 35.0931 95.9256 35.2514 96.044 35.4865C96.2748 35.6796 96.4131 35.8893 96.459 36.1155C96.5164 36.3451 96.5166 36.6204 96.4595 36.9414C96.3922 37.2969 96.2321 37.7126 95.9792 38.1885C95.7296 38.6528 95.278 39.1452 94.6241 39.6655C94.2142 39.995 93.8372 40.2342 93.493 40.3829C93.1489 40.5317 92.7811 40.6547 92.3896 40.7519C92.1004 40.8418 91.8126 40.8633 91.5262 40.8164C91.2397 40.7694 90.9608 40.7184 90.6892 40.6634ZM93.0713 39.0763C93.3891 38.9323 93.6387 38.7432 93.8204 38.509C94.0135 38.2782 94.226 38.0031 94.4578 37.6836C94.5242 37.6281 94.587 37.5215 94.646 37.3637C94.7165 37.2094 94.7681 37.0557 94.8007 36.9027C94.8367 36.7381 94.8236 36.6342 94.7613 36.5908C94.6815 36.4797 94.583 36.4319 94.4658 36.4474C94.352 36.4514 94.1976 36.4871 94.0025 36.5547C93.5724 36.7407 93.1517 36.9794 92.7404 37.271C92.3441 37.5545 92.0086 37.9498 91.734 38.4568C91.6146 38.7344 91.5789 38.9615 91.6268 39.1383C91.6897 39.307 91.839 39.3948 92.0746 39.4017C92.3252 39.4005 92.6574 39.2921 93.0713 39.0763ZM102.147 44.1168C101.971 43.99 101.824 43.8338 101.703 43.6482C101.583 43.4626 101.475 43.2746 101.381 43.0842C101.352 43.0131 101.319 42.8719 101.281 42.6605C101.258 42.4411 101.225 42.1936 101.181 41.9179C101.152 41.6342 101.118 41.3487 101.077 41.0615C101.048 40.7778 101.016 40.5245 100.982 40.3017C100.88 40.4343 100.785 40.5687 100.694 40.7047C100.619 40.8327 100.561 40.9657 100.52 41.1038C100.363 41.2574 100.203 41.4605 100.041 41.713C99.8934 41.9574 99.789 42.1205 99.7273 42.2024C99.6487 42.3418 99.5372 42.4653 99.3929 42.5729C99.2635 42.6724 99.1219 42.7495 98.9681 42.8042C98.723 42.7445 98.5497 42.6746 98.4482 42.5946C98.3615 42.5065 98.2665 42.3409 98.1631 42.0977C98.1287 41.8749 98.1352 41.6829 98.1828 41.5218C98.2452 41.3525 98.3198 41.2056 98.4065 41.0811C98.4601 40.9843 98.5828 40.8015 98.7746 40.5328C98.9814 40.2559 99.2064 39.9595 99.4497 39.6434C99.6964 39.3158 99.9066 39.0275 100.08 38.7784C100.269 38.5212 100.375 38.3712 100.4 38.3286C100.559 38.0876 100.762 37.866 101.009 37.6636C101.26 37.4498 101.457 37.2075 101.599 36.9367C101.706 36.7431 101.848 36.6223 102.025 36.5744C102.205 36.5149 102.378 36.5221 102.544 36.5961C102.713 36.6585 102.826 36.7855 102.882 36.9772C102.925 37.0023 102.96 37.0315 102.987 37.0647C103.03 37.0897 103.06 37.1362 103.078 37.2039C103.156 37.3644 103.179 37.5402 103.148 37.7311C103.128 37.9255 103.041 38.0937 102.886 38.2358C102.692 38.4287 102.526 38.5863 102.39 38.7088C102.265 38.8347 102.142 38.9548 102.021 39.0692C101.911 39.1869 101.787 39.3318 101.649 39.5037C101.771 39.5146 101.88 39.5279 101.975 39.5435C102.074 39.5477 102.163 39.5426 102.242 39.5285C102.336 39.5062 102.437 39.4609 102.545 39.3926C102.634 39.3439 102.789 39.2644 103.009 39.1542C103.233 39.0324 103.47 38.9083 103.72 38.7819C103.985 38.6473 104.206 38.5313 104.385 38.4339C104.579 38.3284 104.683 38.2716 104.698 38.2634C104.809 38.1836 104.928 38.0997 105.054 38.0118C105.195 37.9157 105.353 37.8684 105.527 37.8699C105.731 37.9425 105.89 38.0205 106.003 38.1038C106.127 38.1906 106.196 38.2983 106.208 38.427C106.305 38.6058 106.282 38.8117 106.138 39.0446C106.006 39.2808 105.846 39.4402 105.659 39.5227C105.42 39.6146 105.114 39.7373 104.744 39.8908C104.388 40.0361 104.01 40.1937 103.61 40.3634C103.213 40.5216 102.819 40.6683 102.429 40.8034C102.491 41.0595 102.544 41.3063 102.586 41.5441C102.632 41.7703 102.675 41.9643 102.715 42.1262C102.787 42.3477 102.837 42.5187 102.864 42.6393C102.894 42.7483 103.053 42.8453 103.341 42.9301C103.521 43.0833 103.626 43.2144 103.657 43.3235C103.687 43.4325 103.689 43.5331 103.662 43.6251C103.638 43.7057 103.618 43.7937 103.602 43.8892C103.546 43.9975 103.445 44.1055 103.301 44.213C103.171 44.3125 103.006 44.3639 102.805 44.3671C102.6 44.3819 102.381 44.2984 102.147 44.1168ZM112.345 47.2366C112.026 47.0047 111.799 46.6937 111.663 46.3036C111.543 45.9053 111.49 45.5142 111.503 45.1302C111.443 45.1627 111.384 45.1952 111.324 45.2276C111.279 45.252 111.22 45.2844 111.145 45.325C110.918 45.4583 110.661 45.5888 110.373 45.7166C110.085 45.8444 109.8 45.9417 109.517 46.0086C109.238 46.0639 108.981 46.0444 108.746 45.9501C108.599 45.7692 108.457 45.5958 108.318 45.4298C108.194 45.2556 108.119 45.0456 108.091 44.7998C108.094 44.7883 108.09 44.7808 108.079 44.7774C108.079 44.7774 108.08 44.7717 108.084 44.7602C108.07 44.4683 108.07 44.212 108.085 43.9912C108.115 43.7624 108.212 43.478 108.374 43.1381C108.549 42.8017 108.83 42.3343 109.22 41.7359C109.382 41.4834 109.549 41.2326 109.723 40.9835C109.9 40.7229 110.068 40.4911 110.228 40.2881C110.392 40.0735 110.537 39.8975 110.665 39.7601C110.793 39.6228 110.899 39.5412 110.981 39.5156C111.039 39.5325 111.091 39.5478 111.137 39.5614C111.186 39.5634 111.234 39.5713 111.28 39.5848C111.384 39.6154 111.493 39.7103 111.609 39.8695C111.684 39.9542 111.752 40.0429 111.812 40.1358C111.884 40.232 111.923 40.3122 111.929 40.3766C111.96 40.5236 111.863 40.77 111.635 41.1159C111.408 41.4618 111.148 41.8354 110.855 42.2368C110.576 42.6301 110.311 43.021 110.058 43.4095C109.821 43.7899 109.692 44.102 109.67 44.3458C109.807 44.3486 109.934 44.3423 110.051 44.3268C110.183 44.3031 110.307 44.2646 110.423 44.2112C110.659 44.1308 110.885 44.0222 111.1 43.8856C111.316 43.749 111.51 43.5998 111.683 43.438C111.87 43.2682 112.024 43.1071 112.144 42.9548C112.326 42.7206 112.486 42.5176 112.624 42.3457C112.766 42.1622 112.88 42.0083 112.967 41.8837C113.057 41.7477 113.123 41.6295 113.165 41.5293C113.219 41.4325 113.257 41.3438 113.281 41.2633C113.331 41.0527 113.398 40.9099 113.482 40.8347C113.582 40.7515 113.739 40.6853 113.954 40.636C114.046 40.6631 114.136 40.696 114.225 40.7347C114.317 40.7618 114.402 40.793 114.479 40.8283C114.547 40.936 114.612 41.0553 114.674 41.186C114.75 41.3086 114.821 41.4296 114.886 41.5488C114.9 41.8407 114.795 42.1538 114.571 42.4882C114.362 42.8145 114.137 43.1546 113.895 43.5086C113.65 43.8741 113.427 44.2464 113.228 44.6255C113.043 44.9965 112.999 45.3588 113.095 45.7123C113.292 45.6827 113.48 45.6381 113.66 45.5786C113.844 45.5077 114.027 45.4367 114.211 45.3657C114.394 45.2947 114.574 45.2353 114.751 45.1873C114.901 45.3567 114.986 45.6005 115.005 45.9188C115.023 46.2371 115.002 46.4999 114.941 46.7071C114.893 46.7429 114.841 46.7713 114.785 46.7923C114.74 46.8166 114.69 46.8393 114.633 46.8602C114.49 47.0057 114.271 47.1349 113.975 47.2478C113.682 47.3492 113.384 47.4052 113.081 47.4158C112.777 47.4265 112.532 47.3667 112.345 47.2366ZM19.8109 35.8888C19.9992 35.8442 20.2091 35.8748 20.4407 35.9806C20.6756 36.0749 20.8424 36.2304 20.9411 36.4472C21.0514 36.6674 21.0095 36.9365 20.8156 37.2547C20.7424 37.3332 20.6527 37.4256 20.5463 37.5318C20.4399 37.6381 20.3301 37.7558 20.2169 37.8851C20.1071 38.0028 19.999 38.1148 19.8926 38.2211C19.7978 38.3307 19.7252 38.4282 19.6751 38.5135L19.6598 38.5653C19.7843 38.6521 19.8367 38.7926 19.8169 38.987C19.8087 39.1847 19.7754 39.3188 19.7171 39.3891C19.5992 39.492 19.5064 39.5522 19.4387 39.5698C19.3825 39.5907 19.248 39.6011 19.0354 39.601C18.9859 39.5989 18.9423 39.5985 18.9043 39.5999C18.8779 39.6046 18.8522 39.6283 18.8271 39.6709C18.7281 39.8794 18.6267 40.0747 18.523 40.2568C18.4341 40.4308 18.3338 40.6014 18.2219 40.7686C18.125 40.9277 18.0206 41.0908 17.9087 41.258C17.8586 41.3433 17.7837 41.4276 17.6841 41.5108C17.5845 41.594 17.4162 41.6132 17.1792 41.5683C16.9761 41.4084 16.8279 41.2959 16.7345 41.2308C16.656 41.1576 16.5907 41.082 16.5386 41.0041C16.4831 40.9377 16.4825 40.8124 16.5368 40.6283C16.6026 40.4475 16.6789 40.2949 16.7657 40.1703C16.8742 40.0146 16.9701 39.8803 17.0534 39.7672C17.1517 39.6461 17.2663 39.4484 17.3972 39.1742C17.2706 39.1369 17.1463 39.1128 17.0244 39.1019C16.9175 39.0828 16.8088 39.0696 16.6984 39.062C16.6029 39.0464 16.5 39.0348 16.3896 39.0273C16.2907 39.0232 16.1878 39.0116 16.0808 38.9925C16.0118 38.9722 15.937 38.9501 15.8564 38.9264C15.7758 38.9026 15.6952 38.8788 15.6147 38.8551C15.5375 38.8198 15.4505 38.7754 15.3537 38.7218L15.2694 38.7533C15.2239 38.865 15.1263 39.0051 14.9765 39.1736C14.8417 39.334 14.7454 39.5121 14.6877 39.7077C14.6321 39.854 14.5381 40.0452 14.4059 40.2815C14.2886 40.5096 14.2004 40.7025 14.1414 40.8603C14.0552 41.1101 13.8672 41.2173 13.5774 41.1819C13.2957 41.1614 13.0297 40.9391 12.7795 40.515C12.7436 40.4669 12.721 40.4164 12.7115 40.3636C12.7136 40.3142 12.7133 40.2515 12.7106 40.1757L13.3565 38.9399C13.4501 38.7923 13.5345 38.6546 13.6097 38.5266C13.6884 38.3872 13.7711 38.2552 13.8578 38.1306C14.0246 37.9046 14.1964 37.6612 14.3733 37.4006C14.5537 37.1285 14.7211 36.9214 14.8756 36.7793C14.9122 36.7401 14.9555 36.6778 15.0057 36.5925C15.0674 36.5106 15.1308 36.4229 15.1959 36.3295C15.2609 36.2361 15.3243 36.1485 15.386 36.0666C15.4477 35.9847 15.4985 35.9183 15.5385 35.8676C15.6185 35.766 15.7252 35.6161 15.8588 35.4178C16.0072 35.2113 16.1448 35.0205 16.2716 34.8452C16.3983 34.6699 16.4634 34.5764 16.4668 34.5649C16.5387 34.4485 16.6315 34.3883 16.7453 34.3843C16.8624 34.3688 16.9555 34.3713 17.0246 34.3916C17.3929 34.5002 17.6173 34.6727 17.6977 34.9091C17.7781 35.1455 17.7888 35.3426 17.7298 35.5003C17.6979 35.566 17.6735 35.6276 17.6566 35.6852C17.6396 35.7427 17.6145 35.7854 17.5813 35.8131L16.2342 37.5177L16.1742 37.5938C16.2893 37.6278 16.4078 37.6502 16.5297 37.6611C16.6665 37.6639 16.7924 37.6823 16.9075 37.7162C16.9685 37.7217 17.0582 37.7356 17.1767 37.7581C17.3067 37.7839 17.4465 37.8189 17.5962 37.863C17.7573 37.9105 17.9133 37.9753 18.0643 38.0573C18.3191 37.7446 18.5242 37.4736 18.6794 37.2441C18.838 37.0031 19.057 36.7486 19.3361 36.4807C19.3544 36.461 19.4012 36.3872 19.4765 36.2593C19.5666 36.1232 19.6781 35.9997 19.8109 35.8888ZM22.7841 43.3148C22.7652 43.2091 22.6887 43.0865 22.5547 42.9469C22.4323 42.8107 22.3778 42.7196 22.3914 42.6736C22.405 42.6275 22.3965 42.55 22.3661 42.4409C22.3506 42.3238 22.3267 42.2354 22.2942 42.1758C22.257 42.0897 22.3235 41.9279 22.4936 41.6903C22.6672 41.4413 22.9037 41.1482 23.2033 40.8111C23.5028 40.4741 23.8213 40.1364 24.1588 39.798C24.278 39.7331 24.4057 39.6394 24.5419 39.5169C24.6781 39.3944 24.776 39.317 24.8357 39.2845C24.8492 39.2385 24.8784 39.2033 24.9231 39.1789C24.9712 39.143 25.0183 39.1319 25.0643 39.1455L25.2839 38.91C25.3205 38.8707 25.4167 38.799 25.5725 38.6948C25.7399 38.594 25.9336 38.4885 26.1538 38.3783C26.3773 38.2565 26.5975 38.1463 26.8143 38.0476C27.0425 37.9522 27.2244 37.887 27.3599 37.8519C27.6491 37.762 27.9186 37.7602 28.1685 37.8464C28.4298 37.9359 28.6305 38.0827 28.7705 38.2866C28.7949 38.3313 28.8493 38.4224 28.9339 38.56C29.03 38.7009 29.1341 38.8567 29.2464 39.0274C29.3702 39.2016 29.4744 39.3574 29.559 39.4949L30.0298 40.253L29.4818 41.0297C29.1964 41.446 29.0373 41.837 29.0046 42.2027C28.9718 42.5683 28.9929 42.8998 29.0679 43.1972C29.0881 43.3408 29.1341 43.4607 29.2058 43.5569C29.289 43.6565 29.4078 43.7415 29.5621 43.8121C29.6508 43.8507 29.727 43.9107 29.7906 43.992C29.8542 44.0733 29.8673 44.1773 29.83 44.3039C29.7485 44.5801 29.6373 44.7663 29.4964 44.8624C29.3704 44.9503 29.2464 44.9888 29.1246 44.9779C28.7312 44.912 28.3805 44.7648 28.0725 44.5363C27.7645 44.3079 27.5505 43.8882 27.4303 43.2773C27.4047 43.1947 27.3787 43.0494 27.3524 42.8415C27.3411 42.6255 27.3381 42.487 27.3436 42.426C27.2806 42.47 27.1952 42.5262 27.0875 42.5945C26.9947 42.6547 26.9035 42.7091 26.8141 42.7578C25.7525 43.3456 24.8909 43.6796 24.2292 43.7597C23.5825 43.8317 23.1007 43.6834 22.7841 43.3148ZM24.1562 42.1618C24.2333 42.1971 24.3718 42.1941 24.5716 42.1529C24.7748 42.1002 25.0542 42.0012 25.4099 41.8559C25.8996 41.6375 26.3034 41.4563 26.6211 41.3122C26.9388 41.1682 27.2694 40.9592 27.6129 40.6851L28.176 40.1756C28.139 39.8769 28.0863 39.6737 28.018 39.566C27.9496 39.4583 27.8694 39.3908 27.7774 39.3637C27.6277 39.3196 27.4205 39.3648 27.1556 39.4994C26.8941 39.6225 26.5767 39.8291 26.2034 40.1194C25.8449 40.4015 25.4248 40.7656 24.943 41.2115C24.7187 41.4206 24.5307 41.6342 24.3788 41.8521C24.2304 42.0586 24.1562 42.1618 24.1562 42.1618ZM41.1135 48.9633C40.8602 48.8886 40.6737 48.8211 40.5539 48.7608C40.4456 48.7038 40.3694 48.6438 40.3255 48.5808C40.2815 48.5178 40.2253 48.4325 40.157 48.3247C40.1381 48.2191 40.0915 48.0802 40.0171 47.9082C39.9461 47.7246 39.8944 47.603 39.8619 47.5434C39.8668 47.3572 39.9191 47.1161 40.0189 46.8202C40.1301 46.5278 40.2769 46.2208 40.4593 45.8992C40.6417 45.5777 40.8312 45.2957 41.0277 45.0534C41.1009 44.9749 41.1684 44.8947 41.23 44.8128C41.2917 44.7309 41.3226 44.69 41.3226 44.69C41.3395 44.6324 41.4493 44.5147 41.6519 44.3367C41.866 44.1621 42.0951 43.9795 42.339 43.7886C42.5944 43.6012 42.795 43.4727 42.9406 43.4031C43.0483 43.3347 43.198 43.2725 43.3897 43.2165C43.5929 43.1638 43.7646 43.1331 43.9048 43.1244C44.045 43.1157 44.2346 43.109 44.4736 43.1044C44.7161 43.0883 44.9236 43.1058 45.0963 43.1567C45.2574 43.2042 45.4199 43.2896 45.5837 43.413C45.7475 43.5363 45.8672 43.703 45.943 43.913C46.089 44.1813 46.1484 44.4678 46.1211 44.7725C46.0939 45.0772 46.0266 45.3264 45.9195 45.52C45.7941 45.7332 45.623 45.8892 45.4062 45.9879C45.1928 46.0751 44.9866 46.0956 44.7876 46.0494C44.5919 45.9918 44.443 45.8603 44.3409 45.655C44.322 45.5494 44.321 45.4678 44.338 45.4102C44.3584 45.3411 44.4102 45.2501 44.4936 45.1371C44.5871 44.9895 44.6526 44.8524 44.6899 44.7258C44.7273 44.5992 44.6941 44.5206 44.5905 44.4901C44.4409 44.4459 44.3065 44.4563 44.1872 44.5213C44.0714 44.5747 43.8926 44.6721 43.6507 44.8135C43.543 44.8818 43.4004 44.9836 43.2228 45.1189C43.0453 45.2542 42.8627 45.4068 42.675 45.5767C42.5022 45.7384 42.3392 45.9093 42.1861 46.0893C41.9475 46.4318 41.7939 46.6555 41.7254 46.7605C41.6719 46.8573 41.6451 46.9057 41.6451 46.9057C41.6315 46.9517 41.6122 46.996 41.5871 47.0387C41.5654 47.0698 41.5478 47.1084 41.5342 47.1545C41.4935 47.2926 41.5418 47.4257 41.6792 47.5538C41.7821 47.6717 41.8738 47.7425 41.9543 47.7663C42.0498 47.7819 42.2411 47.7695 42.5283 47.7291C42.7396 47.6913 42.9479 47.6213 43.1531 47.5192C43.3699 47.4205 43.5874 47.3407 43.8055 47.2799C43.9558 47.2367 44.074 47.1965 44.16 47.1593C44.2576 47.1255 44.2996 47.1316 44.286 47.1777C44.2724 47.2237 44.2829 47.2518 44.3174 47.262C44.352 47.2722 44.399 47.261 44.4586 47.2286C44.5549 47.1569 44.6514 47.1478 44.7482 47.2013C44.8484 47.2434 44.932 47.2993 44.999 47.3691C45.0775 47.4423 45.1116 47.4962 45.1014 47.5307C45.0479 47.6275 45.0454 47.7206 45.0941 47.81C45.0806 47.8561 45.0446 47.9143 44.9863 47.9847C44.943 48.047 44.8915 48.0943 44.8319 48.1268C44.7505 48.1904 44.6303 48.28 44.4711 48.3957C44.3233 48.5148 44.1865 48.6183 44.0605 48.7063C43.9344 48.7942 43.8714 48.8382 43.8714 48.8382C43.8288 48.8131 43.7794 48.8111 43.7231 48.832C43.6784 48.8564 43.6263 48.8848 43.5666 48.9172C43.4508 48.9707 43.3458 49.0085 43.2517 49.0308C43.1609 49.0416 43.0925 49.0402 43.0465 49.0266C42.9523 49.0489 42.8805 49.059 42.8311 49.0569C42.7932 49.0582 42.7674 49.0819 42.7539 49.128C42.6048 49.2091 42.3739 49.2286 42.061 49.1864C41.7516 49.1327 41.4357 49.0583 41.1135 48.9633ZM50.2139 52.1346C49.5808 51.9479 49.146 51.6195 48.9093 51.1494C48.6841 50.6826 48.6835 50.0694 48.9075 49.3097C49.0296 48.8954 49.2385 48.4628 49.5341 48.012C49.8412 47.5646 50.1909 47.1422 50.5832 46.745C50.9871 46.3511 51.3954 46.0274 51.8079 45.7737C52.2239 45.5085 52.6077 45.3527 52.9592 45.3062C53.0912 45.2826 53.224 45.2779 53.3574 45.2922C53.5057 45.2984 53.6431 45.3202 53.7697 45.3575C53.9079 45.3983 54.0541 45.4539 54.2084 45.5244C54.3777 45.5868 54.5287 45.6689 54.6613 45.7705C54.9023 45.9292 55.0867 46.1524 55.2145 46.4403C55.3538 46.7316 55.359 47.096 55.23 47.5333C55.1961 47.6484 55.1472 47.7717 55.0835 47.903C55.0231 48.0228 54.9455 48.1376 54.8506 48.2472C54.589 48.5829 54.2519 48.8776 53.8393 49.1313C53.4382 49.3883 53.0504 49.5367 52.6759 49.5764C52.5702 49.5953 52.468 49.6027 52.3691 49.5986C52.2851 49.5863 52.1971 49.5666 52.105 49.5395C51.8633 49.4682 51.6548 49.3692 51.4795 49.2424C51.3157 49.1191 51.1702 48.9761 51.043 48.8135L50.9405 48.6519L50.8033 48.7991C50.6582 48.994 50.5464 49.1612 50.4677 49.3006C50.4006 49.4435 50.3568 49.5494 50.3365 49.6185C50.2958 49.7566 50.2591 49.9022 50.2265 50.0552C50.1973 50.1967 50.1979 50.322 50.2283 50.4311C50.2573 50.5022 50.3013 50.5652 50.3602 50.6201C50.4306 50.6784 50.5233 50.7245 50.6384 50.7584C50.7075 50.7788 50.7708 50.7975 50.8283 50.8144C50.9008 50.8233 50.9617 50.8287 51.0112 50.8308C51.2319 50.8459 51.4209 50.8203 51.578 50.754C51.7501 50.6796 51.9228 50.6242 52.0962 50.5878L52.1754 50.5736L52.1735 50.5167C52.3997 50.4708 52.5507 50.4465 52.6265 50.4439C52.7058 50.4297 52.7661 50.4162 52.8074 50.4034C52.867 50.3709 52.9256 50.3632 52.9831 50.3801C53.1511 50.4046 53.2929 50.4965 53.4086 50.6557C53.5392 50.8068 53.5807 50.9629 53.5332 51.1241C53.5128 51.1931 53.4288 51.2872 53.2811 51.4063C53.1449 51.5288 52.9799 51.6428 52.7862 51.7483C52.6073 51.8457 52.4312 51.9126 52.2578 51.949C52.2199 51.9504 52.1803 51.9574 52.1389 51.9703C52.101 51.9716 52.0614 51.9787 52.0201 51.9915L52.0373 51.9966C51.893 52.1042 51.7691 52.1427 51.6655 52.1122L51.5274 52.0715C51.4576 52.1384 51.2825 52.1807 51.0021 52.1981C50.7183 52.227 50.4556 52.2058 50.2139 52.1346ZM52.3385 48.2384C52.4421 48.2689 52.5393 48.2788 52.6301 48.268C52.7323 48.2607 52.8305 48.2458 52.9247 48.2235C53.2586 48.1093 53.5117 47.9087 53.6839 47.6217C53.8561 47.3347 53.8969 47.0902 53.8063 46.8884C53.7934 46.847 53.7715 46.8155 53.7403 46.7938C53.7126 46.7606 53.6757 46.7373 53.6296 46.7237C53.503 46.6864 53.3473 46.6842 53.1624 46.7173C52.989 46.7537 52.8054 46.8247 52.6117 46.9302C52.4179 47.0357 52.2272 47.1734 52.0395 47.3433L51.7081 47.6396C51.7346 47.6349 51.7535 47.6343 51.765 47.6377C51.7914 47.6329 51.8104 47.6323 51.8219 47.6357C51.9255 47.6662 51.9844 47.7211 51.9986 47.8003C52.0127 47.8796 52.0326 47.9605 52.0583 48.0432C52.0955 48.1292 52.1889 48.1943 52.3385 48.2384ZM55.5494 57.9301C55.479 57.8719 55.3778 57.7482 55.2459 57.5592C55.1255 57.3735 55.02 57.1798 54.9294 56.9779C54.8469 56.791 54.8158 56.6629 54.8362 56.5939C54.8565 56.5248 54.9396 56.3491 55.0854 56.0669C55.2278 55.7961 55.4078 55.4613 55.6255 55.0626C55.8512 54.6788 56.0862 54.2851 56.3302 53.8817C56.5824 53.4932 56.821 53.1507 57.046 52.8542C57.086 52.8034 57.2169 52.6356 57.4385 52.3506C57.675 52.0576 57.9262 51.6937 58.1919 51.2592C58.3723 50.987 58.5932 50.6831 58.8549 50.3474C59.1165 50.0117 59.3839 49.6777 59.657 49.3454C59.9335 49.0015 60.1677 48.6953 60.3595 48.4266C60.5514 48.1578 60.7547 47.8925 60.9696 47.6306C61.1878 47.3571 61.3095 47.1991 61.3346 47.1564C61.3779 47.0942 61.4582 47.0553 61.5754 47.0398C61.7075 47.0162 61.8361 47.0041 61.9614 47.0035C62.0901 46.9914 62.1734 46.9847 62.2113 46.9833C62.4355 46.9869 62.5884 47.1258 62.6702 47.4001C62.6972 47.5207 62.6663 47.668 62.5774 47.8419C62.5035 48.0078 62.39 48.1808 62.2368 48.3608L62.0141 48.6705L62.6764 48.7156C62.78 48.7461 62.9222 48.7943 63.1029 48.8601C63.2837 48.9259 63.4587 48.9901 63.628 49.0525C63.8087 49.1183 63.9303 49.1729 63.9925 49.2163C64.2654 49.3092 64.44 49.417 64.5165 49.5396C64.6044 49.6657 64.6666 49.8154 64.7031 49.9888C64.7436 50.0633 64.7889 50.1642 64.839 50.2916C64.8924 50.4074 64.9113 50.513 64.8956 50.6085C64.884 50.8178 64.7988 51.0429 64.6402 51.2839C64.4931 51.5282 64.304 51.7665 64.0729 51.9986C63.8567 52.2226 63.6169 52.4209 63.3533 52.5934C63.1047 52.7578 62.8771 52.872 62.6705 52.9362C62.5418 52.9483 62.4229 52.9696 62.3139 53C62.2082 53.0189 62.1554 53.0283 62.1554 53.0283C62.1269 53.0825 61.9772 53.1447 61.7063 53.2149C61.4469 53.2886 61.1489 53.3446 60.8123 53.3829C60.4906 53.4132 60.2095 53.4117 59.9692 53.3783C59.8852 53.3661 59.7667 53.3436 59.6137 53.311C59.4607 53.2784 59.3506 53.2272 59.2836 53.1574C59.1638 53.0971 59.0809 53.0601 59.0349 53.0465C58.9888 53.0329 58.959 53.0492 58.9454 53.0952C58.9271 53.1148 58.7923 53.2752 58.5408 53.5764C58.2894 53.8776 57.9931 54.3095 57.6521 54.872C57.2366 55.4751 56.897 55.9692 56.6333 56.3544C56.3662 56.751 56.1567 57.0583 56.0049 57.2763C55.8646 57.4976 55.7619 57.655 55.6968 57.7484C55.6283 57.8533 55.5792 57.9139 55.5494 57.9301ZM59.8078 51.6981C59.8219 51.7773 59.936 51.836 60.15 51.874C60.3673 51.9006 60.6237 51.9011 60.9189 51.8756C61.2142 51.85 61.4858 51.7988 61.7337 51.7217C61.9965 51.6366 62.169 51.5185 62.251 51.3676C62.5891 51.1545 62.8286 50.9999 62.9695 50.9038C63.1138 50.7963 63.1403 50.6852 63.0489 50.5707C62.9766 50.3492 62.8179 50.2086 62.5728 50.1488C62.3392 50.0925 61.9285 50.1277 61.3406 50.2546C61.1245 50.266 60.9735 50.2903 60.8875 50.3275C60.8049 50.3531 60.7252 50.411 60.6487 50.501C60.5836 50.5944 60.4653 50.741 60.2938 50.9406C60.1156 51.1633 59.9905 51.3328 59.9187 51.4493C59.8468 51.5657 59.8098 51.6486 59.8078 51.6981ZM68.4584 57.4202C68.2017 57.3571 67.9621 57.2364 67.7394 57.0581C67.5249 56.8948 67.3835 56.6529 67.3153 56.3325C67.2647 56.0799 67.2537 55.8202 67.2823 55.5534C67.3109 55.2866 67.3822 55.0449 67.4961 54.8283C67.8582 54.1093 68.1363 53.5908 68.3301 53.2726C68.524 52.9545 68.6335 52.7741 68.6586 52.7314C68.6952 52.6922 68.7603 52.5988 68.8538 52.4512C68.9589 52.307 69.0629 52.1876 69.1659 52.0928C69.2744 51.9372 69.3511 51.7408 69.3959 51.5038C69.4115 51.4084 69.4553 51.3024 69.5272 51.186C69.6105 51.0729 69.6952 50.9978 69.7813 50.9606C70.0211 50.8687 70.2341 50.7189 70.4205 50.5111C70.4788 50.4407 70.572 50.3368 70.7001 50.1994C70.8315 50.0505 70.9688 49.9033 71.1118 49.7578C71.2697 49.6042 71.3943 49.4783 71.4858 49.3802C71.7379 49.2043 72.0075 48.9898 72.2948 48.7367C72.5822 48.4837 72.8789 48.2834 73.1851 48.136C73.4094 47.9269 73.6597 47.7567 73.9361 47.6256C74.2274 47.4863 74.5079 47.3625 74.7775 47.2543C75.062 47.1381 75.2936 47.0312 75.4725 46.9338C75.5951 46.8574 75.803 46.8311 76.0962 46.855C76.3894 46.8789 76.6234 46.8916 76.7981 46.8931C76.9993 46.8898 77.1963 46.9855 77.3891 47.1799C77.582 47.3744 77.7034 47.5353 77.7535 47.6627C77.8379 48.0129 77.8668 48.2966 77.8402 48.514C77.8171 48.7198 77.7279 48.9375 77.5726 49.167C77.4208 49.3849 77.1768 49.682 76.8407 50.0583C76.4747 50.4509 76.0086 50.8013 75.4422 51.1098C74.8759 51.4182 74.3018 51.668 73.7199 51.8593C73.4435 51.9904 73.1475 52.1033 72.8319 52.1979C72.5162 52.2925 72.2189 52.3675 71.9399 52.4228C71.7665 52.4593 71.589 52.4883 71.4075 52.5098C71.2409 52.5233 71.0686 52.535 70.8905 52.545C70.8031 52.5443 70.7269 52.5906 70.6618 52.684C70.6082 52.7808 70.5306 52.8956 70.429 53.0282C70.3869 53.1284 70.331 53.212 70.2612 53.279C70.2063 53.3379 70.1622 53.3812 70.129 53.409C70.0843 53.4333 70.0135 53.525 69.9165 53.6841C69.8196 53.8432 69.7125 54.0368 69.5952 54.2649C69.4778 54.4931 69.3622 54.7154 69.2483 54.9321C69.1344 55.1487 69.0473 55.3169 68.9869 55.4367C68.9266 55.5566 68.8937 55.6469 68.8882 55.7079C68.8976 55.7607 68.9277 55.8071 68.9785 55.8471C69.1119 55.8614 69.2193 55.8368 69.3006 55.7732C69.3968 55.7015 69.4987 55.6314 69.6065 55.5631C69.7461 55.4291 69.865 55.3016 69.9633 55.1804C70.0731 55.0626 70.1988 54.9121 70.3404 54.7286C70.4238 54.6156 70.5123 54.4853 70.6058 54.3377C70.7143 54.182 70.8143 54.0551 70.9057 53.957C70.977 53.7153 71.0239 53.5352 71.0463 53.4167C71.0836 53.2901 71.1027 53.1831 71.1034 53.0957C71.1156 53.0118 71.1181 52.9187 71.1107 52.8164C71.2829 52.5294 71.4103 52.373 71.493 52.3474C71.579 52.3102 71.6589 52.315 71.7327 52.3617C71.9493 52.4757 72.1229 52.6082 72.2535 52.7593C72.3956 52.9138 72.5171 53.0747 72.6179 53.242C72.6699 53.3199 72.6939 53.4083 72.6898 53.5072C72.6972 53.6095 72.6809 53.686 72.6409 53.7367C72.5886 53.8715 72.5273 54.016 72.4567 54.1704C72.4011 54.3166 72.3546 54.453 72.3173 54.5796C72.1824 54.74 72.038 54.9539 71.8841 55.2213C71.7302 55.4887 71.5658 55.728 71.391 55.9392C71.2778 56.0684 71.1033 56.2359 70.8675 56.4416C70.6466 56.6392 70.4714 56.7877 70.342 56.8872C70.1381 57.0272 69.8742 57.1371 69.5505 57.2168C69.2382 57.2999 68.9433 57.3881 68.6655 57.4813L68.4584 57.4202ZM71.7621 50.9254C71.8244 50.9688 71.8934 50.9892 71.9693 50.9865C72.06 50.9757 72.145 50.9633 72.2243 50.9491C72.6929 50.8871 73.1613 50.7625 73.6294 50.5752C74.1124 50.3798 74.5527 50.1594 74.9504 49.9138C75.3629 49.6602 75.679 49.4156 75.8986 49.18C76.005 49.0738 76.1273 48.9347 76.2656 48.7628C76.4154 48.5943 76.5333 48.3851 76.6195 48.1353L76.6034 47.9992C76.3521 48.0877 76.0882 48.1976 75.8118 48.3288C75.5354 48.4599 75.2018 48.6368 74.8109 48.8593C74.6619 48.9405 74.459 49.0558 74.2022 49.2053C73.9488 49.3433 73.6697 49.5049 73.3649 49.6903C73.0715 49.879 72.7805 50.081 72.4919 50.2961C72.2066 50.4998 71.9634 50.7095 71.7621 50.9254ZM77.2608 59.6028C76.8662 59.2863 76.6437 58.8954 76.5932 58.4301C76.5427 57.9649 76.6596 57.3988 76.9438 56.732C77.072 56.3819 77.1301 56.1426 77.118 56.0139C77.1093 55.8737 77.0586 55.7274 76.9659 55.575C76.9449 55.5188 76.8864 55.4202 76.7904 55.2793C76.6977 55.1268 76.6656 55.0235 76.6941 54.9694C76.7063 54.8854 76.7524 54.7927 76.8324 54.6911C76.9158 54.5781 76.9764 54.5209 77.0144 54.5196C77.1051 54.5088 77.1976 54.4923 77.2917 54.47C77.3974 54.4511 77.4698 54.46 77.5091 54.4966C77.5551 54.5101 77.6157 54.5593 77.6908 54.644C77.7774 54.7321 77.8139 54.7991 77.8004 54.8452C77.8226 54.9393 77.9019 54.9252 78.0381 54.8027C78.1858 54.6836 78.3511 54.5259 78.5341 54.3297C78.7035 54.1794 78.8983 54.0492 79.1185 53.939C79.3386 53.8287 79.5537 53.7358 79.7637 53.6601C79.9886 53.5763 80.1745 53.5185 80.3215 53.4867C80.3858 53.4807 80.5053 53.4784 80.6801 53.4799C80.8663 53.4847 81.0549 53.5028 81.2458 53.5341C81.4402 53.5539 81.5817 53.5831 81.6704 53.6218C81.8742 53.6944 82.0674 53.8452 82.2501 54.0742C82.4328 54.3032 82.5671 54.5054 82.6529 54.6809C82.772 54.8286 82.8224 55.0186 82.8039 55.2508C82.8004 55.475 82.7589 55.7005 82.6795 55.9273C82.6001 56.1541 82.4964 56.3362 82.3683 56.4736C82.2998 56.5785 82.1315 56.704 81.8632 56.8501C81.5949 56.9962 81.3053 57.1297 80.9944 57.2507C80.6984 57.3636 80.4539 57.4292 80.2609 57.4473C80.1011 57.4377 79.9142 57.4139 79.7002 57.3758C79.4896 57.3262 79.294 57.2685 79.1132 57.2027C78.9473 57.1288 78.835 57.0644 78.7761 57.0095C78.7091 56.9397 78.6349 56.9366 78.5536 57.0002C78.4872 57.0557 78.3892 57.2395 78.2597 57.5516C78.2108 57.6748 78.1786 57.7842 78.163 57.8796C78.1588 57.9785 78.1615 58.0543 78.1709 58.1072C78.2108 58.269 78.2608 58.3964 78.321 58.4892C78.3846 58.5705 78.5292 58.6319 78.7546 58.6734C78.9801 58.7148 79.2378 58.6469 79.5278 58.4697C79.8327 58.2844 80.0992 58.144 80.3275 58.0487C80.3973 57.9817 80.5104 57.9588 80.6668 57.9799C80.8382 57.9928 81.0247 58.0604 81.2264 58.1824C81.3293 58.3003 81.3495 58.4439 81.2871 58.6131C81.2362 58.7858 81.0694 59.0119 80.7868 59.2913C80.7285 59.3617 80.5951 59.4537 80.3864 59.5674C80.1927 59.6729 79.98 59.7791 79.7483 59.8859C79.5315 59.9846 79.3554 60.0515 79.2199 60.0867C78.8203 60.169 78.4553 60.1552 78.1249 60.0453C77.7945 59.9354 77.5065 59.7879 77.2608 59.6028ZM79.6838 56.0949C79.87 56.0998 80.0275 56.0961 80.1562 56.084C80.2964 56.0753 80.4393 56.0361 80.5849 55.9665C80.7306 55.8968 80.9087 55.7805 81.1195 55.6174C81.2028 55.5044 81.2581 55.4018 81.2852 55.3097C81.3239 55.2211 81.3351 55.1618 81.3189 55.132C81.254 55.0128 81.1589 54.9535 81.0336 54.954C80.9232 54.9465 80.7911 54.9701 80.6374 55.0249C80.5466 55.0357 80.4094 55.0765 80.2259 55.1475C80.0572 55.2104 79.8835 55.2905 79.7046 55.3879C79.5407 55.4772 79.4014 55.5675 79.2869 55.6588C79.1873 55.7421 79.1572 55.802 79.1964 55.8386C79.1598 55.8778 79.2146 55.9253 79.3609 55.9809C79.5186 56.0399 79.6263 56.0779 79.6838 56.0949ZM83.8164 65.1764C83.6417 65.175 83.4867 65.0855 83.3514 64.9079C83.2276 64.7338 83.1519 64.5238 83.1243 64.278C83.1082 64.0355 83.1743 63.8111 83.3228 63.6047C83.3662 63.5424 83.4346 63.4375 83.5282 63.2899C83.6184 63.1538 83.6862 63.03 83.7316 62.9183C83.7669 62.8411 83.8421 62.7131 83.9574 62.5344C84.0692 62.3672 84.1868 62.2017 84.3102 62.038C84.4451 61.8775 84.5474 61.7638 84.6172 61.6969C84.7202 61.6021 84.8053 61.4833 84.8724 61.3405C84.9511 61.201 85.0023 61.091 85.026 61.0104C85.0728 60.9367 85.1287 60.8531 85.1938 60.7597C85.2704 60.6696 85.3402 60.6026 85.4032 60.5587C85.4534 60.4734 85.5167 60.3857 85.5933 60.2957C85.6733 60.1942 85.7539 60.1116 85.8352 60.048C85.882 59.9742 85.9281 59.8815 85.9736 59.7698C86.0305 59.6615 86.0837 59.6083 86.1332 59.6104C86.1583 59.5678 86.1776 59.5234 86.1912 59.4774C86.2163 59.4347 86.2579 59.3782 86.3162 59.3078C86.3766 59.188 86.4827 59.0191 86.6345 58.8012C86.7864 58.5832 86.9623 58.3473 87.1622 58.0935C87.3872 57.7971 87.5584 57.5348 87.6757 57.3066C87.7964 57.067 87.7806 56.8872 87.6283 56.7672C87.5498 56.694 87.5228 56.5734 87.5473 56.4055C87.5752 56.2261 87.6376 56.0568 87.7346 55.8977C87.8315 55.7387 87.9311 55.6554 88.0334 55.6481C88.1505 55.6326 88.2856 55.6411 88.4387 55.6737C88.5917 55.7063 88.7241 55.7454 88.8358 55.7908C88.9624 55.8281 89.0165 55.8566 88.9982 55.8763C88.9813 55.9338 88.9999 55.9768 89.054 56.0053C89.0872 55.9776 89.118 56.0429 89.1463 56.2014C89.1896 56.3518 89.222 56.5177 89.2435 56.6992C89.265 56.8807 89.2673 57.0002 89.2504 57.0578C89.2138 57.0971 89.1938 57.1224 89.1904 57.1339C89.1904 57.1339 89.2134 57.1407 89.2594 57.1543C89.2594 57.1543 89.3312 57.1442 89.4748 57.124C89.6218 57.0923 89.7762 57.0565 89.9381 57.0166C90.1149 56.9687 90.2331 56.9284 90.2927 56.896C90.2927 56.896 90.3249 56.893 90.3892 56.8869C90.4684 56.8727 90.5379 56.8494 90.5975 56.817C90.8548 56.7928 91.1074 56.8485 91.3552 56.9841C91.6144 57.1231 91.8026 57.2911 91.9196 57.4883C92.065 57.8439 92.1324 58.2516 92.1219 58.7114C92.123 59.1746 91.9835 59.5839 91.7036 59.9393C91.6636 59.99 91.583 60.0726 91.4617 60.1869C91.3553 60.2932 91.2506 60.3937 91.1476 60.4884C91.048 60.5717 90.9982 60.6133 90.9982 60.6133C90.6113 60.9496 90.2159 61.2083 89.8122 61.3895C89.42 61.5742 89.0092 61.7158 88.5798 61.8143C88.4409 61.861 88.2577 61.8883 88.0302 61.8962C87.8141 61.9076 87.6147 61.9051 87.4318 61.8887C87.2605 61.8757 87.161 61.8526 87.1333 61.8194C87.0338 61.69 86.9764 61.4604 86.961 61.1306C86.8594 61.2633 86.7577 61.3959 86.656 61.5286C86.5693 61.6531 86.5133 61.7367 86.4882 61.7794C86.453 61.8566 86.4211 61.9222 86.3926 61.9764C86.3675 62.019 86.3269 62.0508 86.2707 62.0718C86.2707 62.0718 86.2581 62.0931 86.233 62.1358C86.208 62.1784 86.1473 62.2356 86.0511 62.3073C85.8376 62.6072 85.6691 62.839 85.5458 63.0028C85.419 63.1781 85.3156 63.3165 85.2357 63.418C85.1638 63.5345 85.0902 63.6566 85.015 63.7846C84.9003 64.0886 84.7288 64.3946 84.5004 64.7025C84.2835 65.0139 84.0555 65.1719 83.8164 65.1764ZM88.0434 60.3238C88.0962 60.3143 88.1887 60.2978 88.3208 60.2742C88.4643 60.254 88.6228 60.2257 88.7962 60.1892C88.973 60.1412 89.1366 60.0956 89.2869 60.0524C89.4522 60.001 89.5738 59.9493 89.6517 59.8972C89.7743 59.8208 89.8499 59.7555 89.8784 59.7013C89.9102 59.6357 89.9713 59.5348 90.0614 59.3988C90.1231 59.3169 90.1939 59.2251 90.2739 59.1236C90.3539 59.0221 90.4264 58.9246 90.4915 58.8312C90.5647 58.7527 90.6091 58.6657 90.6247 58.5702C90.6553 58.4667 90.6462 58.3701 90.5975 58.2807C90.5549 58.2556 90.4404 58.2407 90.2542 58.2358C90.0795 58.2343 89.8624 58.2704 89.603 58.344C89.3551 58.4211 89.0885 58.5614 88.8033 58.7651C88.4699 59.0046 88.2256 59.239 88.0704 59.4685C87.9186 59.6865 87.8436 59.877 87.8455 60.0402C87.8508 60.1919 87.9168 60.2865 88.0434 60.3238ZM97.7726 65.4444C97.3696 65.5383 96.9673 65.5448 96.5658 65.4639C96.1792 65.375 95.8376 65.218 95.5412 64.9929C95.2481 64.7564 95.037 64.4752 94.9079 64.1494C94.8369 63.9658 94.7971 63.6976 94.7886 63.3448C94.7834 62.9804 94.8985 62.5265 95.1339 61.9828C95.359 61.4737 95.678 60.986 96.0907 60.5197C96.515 60.0568 96.9781 59.6742 97.4801 59.3718C97.9821 59.0694 98.4796 58.9096 98.9726 58.8923C99.1507 58.8823 99.3238 58.8895 99.4917 58.914C99.6745 58.9304 99.9007 58.9908 100.17 59.0953C100.425 59.2079 100.64 59.3465 100.817 59.5112C100.997 59.6644 101.116 59.8121 101.174 59.9543C101.304 60.1928 101.372 60.4068 101.379 60.5965C101.386 60.7861 101.359 60.9598 101.3 61.1175C101.134 61.4689 100.85 61.8167 100.448 62.1612C100.058 62.509 99.5907 62.7152 99.0462 62.7798C98.8267 62.8027 98.5813 62.7866 98.3097 62.7316C98.0382 62.6766 97.6858 62.5351 97.2526 62.3073C96.9933 62.1683 96.8007 62.1428 96.6747 62.2307C96.5601 62.3221 96.4594 62.5363 96.3725 62.8735C96.3345 63.0875 96.3262 63.2852 96.3477 63.4667C96.3842 63.6401 96.4975 63.7861 96.6877 63.9048C96.9389 64.0289 97.1271 64.0906 97.2524 64.09C97.3811 64.0779 97.5436 64.057 97.74 64.0274C97.8491 63.997 97.9541 63.9591 98.055 63.9138C98.1674 63.8719 98.2741 63.8283 98.3751 63.783C98.4875 63.7411 98.5776 63.7114 98.6453 63.6938C98.7164 63.6647 98.7825 63.6529 98.8434 63.6584C98.9044 63.6638 98.9636 63.675 99.0212 63.692C99.1444 63.7409 99.2449 63.8456 99.3226 64.0061C99.4004 64.1667 99.4396 64.3096 99.4402 64.4349C99.413 64.5269 99.3165 64.6423 99.1504 64.781C98.9878 64.9082 98.7815 65.0351 98.5316 65.1615C98.2965 65.2799 98.0435 65.3742 97.7726 65.4444ZM98.6834 61.5281C98.7741 61.5174 98.913 61.4707 99.0999 61.3882C99.2984 61.3091 99.4813 61.2192 99.6487 61.1184C99.8194 61.0061 99.9166 60.9097 99.9404 60.8291C99.9777 60.7025 99.9236 60.5677 99.7781 60.4247C99.6441 60.2851 99.4363 60.2051 99.1546 60.1846C99.0557 60.1804 98.9277 60.2115 98.7706 60.2777C98.6134 60.344 98.4512 60.4275 98.2838 60.5283C98.1199 60.6176 97.9732 60.712 97.8438 60.8114C97.7178 60.8994 97.6273 60.9728 97.5724 61.0317C97.6015 61.1028 97.68 61.176 97.8079 61.2512C97.9359 61.3265 98.0804 61.3879 98.2416 61.4354C98.4142 61.4863 98.5615 61.5172 98.6834 61.5281Z" fill="white"/>
</svg>
