<?xml version="1.0" standalone="no"?>
<!DOCTYPE svg PUBLIC "-//W3C//DTD SVG 20010904//EN"
 "http://www.w3.org/TR/2001/REC-SVG-20010904/DTD/svg10.dtd">
<svg version="1.0" xmlns="http://www.w3.org/2000/svg"
 width="512.000000pt" height="512.000000pt" viewBox="0 0 512.000000 512.000000"
 preserveAspectRatio="xMidYMid meet">
<metadata>
Created by potrace 1.14, written by Peter Selinger 2001-2017
</metadata>
<g transform="translate(0.000000,512.000000) scale(0.100000,-0.100000)"
fill="#000000" stroke="none">
<path d="M1629 5116 c-2 -2 -29 -6 -59 -9 -314 -34 -660 -182 -914 -390 -61
-51 -189 -176 -236 -232 -86 -102 -211 -297 -247 -384 -8 -20 -23 -54 -33 -76
-38 -87 -75 -201 -96 -300 -16 -74 -26 -128 -32 -180 -9 -81 -9 -1893 1 -1973
15 -129 66 -336 106 -426 9 -22 26 -61 36 -86 74 -175 207 -370 357 -522 115
-116 157 -151 278 -232 241 -162 522 -266 790 -294 93 -10 1903 -9 1975 1 166
23 356 75 475 129 25 12 68 31 95 44 229 103 511 344 666 569 19 28 37 52 42
53 4 2 7 8 7 14 0 5 9 22 19 37 31 43 127 241 155 319 39 109 74 254 90 372
20 151 20 1892 0 2025 -59 392 -225 730 -490 1001 -110 111 -174 165 -299 249
-84 56 -289 164 -319 169 -6 1 -15 4 -21 7 -41 25 -239 76 -380 99 -100 17
-192 18 -1036 19 -509 0 -928 -1 -930 -3z"/>
</g>
</svg>
