<svg width="128" height="551" viewBox="0 0 128 551" fill="none" xmlns="http://www.w3.org/2000/svg">
<path d="M58.5 1C73.4159 5 90.8182 24 101.5 47.5C112.182 71 118 94 121.992 127.829C125.984 161.657 124.862 199.5 121.992 216C115.669 252.352 108.5 289.5 87 320C78 334 68 333.5 59 331C55 329.889 47 326 45.5 316.5C42.7573 299.13 58 289.667 75.5 293C107 299 125.737 329.681 127.232 353.599C128.829 379.149 120.684 401.417 108.893 423.726C92.731 454.303 71.0405 484.603 46.5625 509.078C37.5829 518.057 28.4872 526.813 18.7266 534.946C16.0855 537.147 12 540 6.71899 543.787" stroke="#585858" stroke-linecap="round" stroke-dasharray="5 5"/>
<path d="M3.96264 545.81C7.13326 543.372 6.58501 539.378 4.7561 537" stroke="#585858" stroke-linecap="round" stroke-linejoin="round"/>
<path d="M3.96267 545.81C7.13329 543.372 10.8525 544.927 12.6814 547.305" stroke="#585858" stroke-linecap="round" stroke-linejoin="round"/>
</svg>
